<?xml version="1.0" encoding="utf-8"?>
<!-- Generator: Adobe Illustrator 22.1.0, SVG Export Plug-In . SVG Version: 6.00 Build 0)  -->
<svg version="1.1" xmlns="http://www.w3.org/2000/svg" xmlns:xlink="http://www.w3.org/1999/xlink" x="0px" y="0px"
	 viewBox="0 0 1366 1212" style="enable-background:new 0 0 1366 1212;" xml:space="preserve">
<style type="text/css">
	.st0{fill:#95CA7D;}
	.st1{fill:#ECF3F2;}
	.st2{fill:#81CDCA;}
	.st3{fill:#FFFFFF;}
	.st4{opacity:0.1;fill:#253A37;}
	.st5{fill:#D3EBE7;}
	.st6{fill:#573820;}
	.st7{fill:#00967A;}
	.st8{opacity:0.2;fill:#0D3D34;}
	.st9{fill:#3B6A56;}
	.st10{fill:#E96E30;}
	.st11{fill:#F17838;}
	.st12{fill:#873621;stroke:#FFFFFF;stroke-width:0.5482;stroke-miterlimit:10;}
	.st13{fill:none;stroke:#FFFFFF;stroke-width:0.9868;stroke-miterlimit:10;}
	.st14{fill:none;stroke:#FFFFFF;stroke-width:4.6686;stroke-miterlimit:10;}
	.st15{opacity:0.15;fill:#3C1F10;}
	.st16{fill:#E9BC35;}
	.st17{fill:#D8AA38;}
	.st18{fill:#A67733;stroke:#FFFFFF;stroke-width:0.6188;stroke-miterlimit:10;}
	.st19{fill:#A67733;stroke:#FFFFFF;stroke-width:0.7743;stroke-miterlimit:10;}
	.st20{fill:none;stroke:#FFFFFF;stroke-width:1.405;stroke-miterlimit:10;}
	.st21{fill:none;stroke:#FFFFFF;stroke-width:1.1139;stroke-miterlimit:10;}
	.st22{fill:none;stroke:#FFFFFF;stroke-width:5.2699;stroke-miterlimit:10;}
	.st23{opacity:0.15;fill:#292313;}
	.st24{fill:#EA282E;}
	.st25{fill:#EB3B3A;}
	.st26{fill:#86191E;stroke:#FFFFFF;stroke-width:0.5482;stroke-miterlimit:10;}
	.st27{opacity:0.15;fill:#3A1311;}
	.st28{fill:#FACE31;}
	.st29{fill:#FCC768;}
	.st30{fill:#FAB531;}
	.st31{fill:#B07F6B;}
	.st32{fill:#42AE6A;}
	.st33{fill:#89C249;}
	.st34{fill:#75BD58;}
	.st35{fill:#EB7331;}
	.st36{fill:#3E2715;}
	.st37{fill:#F79F31;}
	.st38{opacity:0.2;fill:#3B3718;}
	.st39{fill:#15A050;}
	.st40{fill:#CAE7E2;}
	.st41{fill:#3D2F32;}
	.st42{fill:#1A1918;}
	.st43{fill:#EF7056;}
	.st44{fill:#E3514E;}
	.st45{fill:#BF232D;}
	.st46{fill:#8A1933;}
	.st47{opacity:0.14;fill:#3A2D32;}
	.st48{fill:#FBC27F;}
	.st49{fill:#F8A849;}
	.st50{fill:#EF8F32;}
	.st51{fill:#2C9798;}
	.st52{fill:#61BAAD;}
	.st53{fill:#084D76;}
	.st54{fill:#084D76;stroke:#2C9798;stroke-width:3.26;stroke-miterlimit:10;}
	.st55{fill:#855527;}
	.st56{fill:#B98B5D;}
	.st57{fill:#FAECAF;}
	.st58{fill:#5C3A1C;}
	.st59{fill:#2C2451;}
	.st60{fill:#F1A233;}
	.st61{fill:#403865;}
	.st62{fill:#D75566;}
	.st63{fill:#F39493;}
	.st64{fill:#E39134;}
	.st65{fill:#F9B033;}
	.st66{fill:#1C1B1A;}
	.st67{fill:#603B26;}
	.st68{fill:#FFF2CD;}
	.st69{fill:#1C0D0D;}
	.st70{fill-rule:evenodd;clip-rule:evenodd;fill:#402313;}
	.st71{fill-rule:evenodd;clip-rule:evenodd;fill:#FFFFFF;}
	.st72{fill:#1F2732;}
	.st73{fill:#F28030;}
	.st74{fill:#F8C733;}
	.st75{fill:#E54B2F;}
	.st76{fill:#4A69AD;}
	.st77{fill:#161928;}
</style>
<g id="Calque_1">
	<g>
		
			<image style="overflow:visible;opacity:0.1;" width="1392" height="781" xlink:href="419715BD3981AE5C.png"  transform="matrix(1 0 0 1 -11.0549 246.9451)">
		</image>
		<g>
			<path class="st0" d="M0,332c38.1-49,51.4-78.5,140.3,8.1c90.9,88.5,202.5-78.4,241.5-78.4c35.8,0,99.5,162.9,137.1,164.2
				c57.8,2.1,45.7-30.8,77.6-31.8c30.9,0,59.5,78.7,107.9,9.1c56.8-81.8,98.1-26.8,142.5,22.8c8.1,12.1,36.3-25.4,67.2-18.8
				c30.9,6.7,52.4,76.6,99.5,25.6c47.1-51,76.6,25.1,95.5,18.5s74-60.5,108.9-63.1c35-2.7,147.9,12.9,147.9,12.9v615.6L-1,1017
				L0,332z"/>
		</g>
	</g>
	<g>
		
			<image style="overflow:visible;opacity:0.1;" width="617" height="257" xlink:href="419715BD3981AE5D.png"  transform="matrix(1 0 0 1 661.9451 539.9451)">
		</image>
		<g>
			<path class="st1" d="M672.6,657.9c163.9-20.4,171.9-115.2,488.6-101.1c229.3,10.2,0,0,0,0l-3.8,229.7l-469.5-6.1l-3.7-75.9
				L672.6,657.9z"/>
		</g>
	</g>
	<g>
		<g>
			
				<image style="overflow:visible;opacity:0.4;" width="259" height="223" xlink:href="419715BD3981AE5B.png"  transform="matrix(1 0 0 1 868.0316 383.0316)">
			</image>
			<g>
				<polygon class="st2" points="1001,395.2 1117.3,595.6 881.2,595.6 				"/>
			</g>
		</g>
		<polygon class="st3" points="966,453.8 1035,453.8 1001,395.2 		"/>
		<polyline class="st4" points="1001,395.2 1117.3,595.6 995.7,595.6 		"/>
	</g>
	<g>
		<g>
			
				<image style="overflow:visible;opacity:0.4;" width="162" height="140" xlink:href="419715BD3981AE64.png"  transform="matrix(1 0 0 1 1027.1864 491.1864)">
			</image>
			<g>
				<polygon class="st5" points="1110.4,499.1 1182.7,623.6 1036,623.6 				"/>
			</g>
		</g>
		<polygon class="st3" points="1088.7,535.5 1131.6,535.5 1110.4,499.1 		"/>
		<polyline class="st4" points="1110.4,499.1 1182.7,623.6 1107.2,623.6 		"/>
	</g>
	<g>
		<g>
			<g>
				<g>
					<rect x="1027.3" y="638.9" class="st6" width="12.6" height="21.6"/>
					<g>
						<polygon class="st7" points="983.5,646.7 1032.4,585.4 1081.3,646.7 						"/>
						<g>
							
								<image style="overflow:visible;opacity:0.4;" width="106" height="78" xlink:href="419715BD3981AE67.png"  transform="matrix(1 0 0 1 981.486 550.486)">
							</image>
							<g>
								<polygon class="st7" points="993.4,616.4 1032.4,566.3 1071.4,616.4 								"/>
							</g>
						</g>
						<g>
							
								<image style="overflow:visible;opacity:0.4;" width="86" height="67" xlink:href="419715BD3981AE65.png"  transform="matrix(1 0 0 1 991.486 530.486)">
							</image>
							<g>
								<polygon class="st7" points="1003.7,585.4 1032.4,547.1 1061.1,585.4 								"/>
							</g>
						</g>
					</g>
					<polyline class="st8" points="1032.4,646.7 1081.3,646.7 1057.1,616.4 1071.4,616.4 1047.3,585.4 1061.1,585.4 1032.4,547.1 
											"/>
				</g>
			</g>
		</g>
		<g>
			<g>
				<g>
					<rect x="1085.3" y="656.6" class="st6" width="7.6" height="12.9"/>
					<g>
						<polygon class="st7" points="1059.1,661.2 1088.4,624.5 1117.7,661.2 						"/>
						<g>
							
								<image style="overflow:visible;opacity:0.4;" width="65" height="48" xlink:href="419715BD3981AE6B.png"  transform="matrix(1 0 0 1 1057.8916 602.8915)">
							</image>
							<g>
								<polygon class="st7" points="1065,643.1 1088.4,613 1111.8,643.1 								"/>
							</g>
						</g>
						<g>
							
								<image style="overflow:visible;opacity:0.4;" width="52" height="41" xlink:href="419715BD3981AE6C.png"  transform="matrix(1 0 0 1 1063.8916 591.8915)">
							</image>
							<g>
								<polygon class="st7" points="1071.2,624.5 1088.4,601.5 1105.6,624.5 								"/>
							</g>
						</g>
					</g>
					<polyline class="st8" points="1088.4,661.2 1117.7,661.2 1103.2,643.1 1111.8,643.1 1097.3,624.5 1105.6,624.5 1088.4,601.5 
											"/>
				</g>
			</g>
		</g>
	</g>
	<g>
		<g>
			<g>
				<g>
					<rect x="953" y="616.3" class="st6" width="5.6" height="9.7"/>
					<g>
						<polygon class="st9" points="933.4,619.8 955.3,592.3 977.2,619.8 						"/>
						<g>
							
								<image style="overflow:visible;opacity:0.4;" width="49" height="37" xlink:href="419715BD3981AE6F.png"  transform="matrix(1 0 0 1 931.9484 575.9484)">
							</image>
							<g>
								<polygon class="st9" points="937.8,606.2 955.3,583.7 972.7,606.2 								"/>
							</g>
						</g>
						<g>
							
								<image style="overflow:visible;opacity:0.4;" width="40" height="31" xlink:href="7AD624594FBE33AB.png"  transform="matrix(1 0 0 1 936.9484 567.9484)">
							</image>
							<g>
								<polygon class="st9" points="942.4,592.3 955.3,575.2 968.1,592.3 								"/>
							</g>
						</g>
					</g>
					<polyline class="st8" points="955.3,619.8 977.2,619.8 966.4,606.3 972.8,606.3 962,592.4 968.2,592.4 955.3,575.3 					"/>
				</g>
			</g>
		</g>
	</g>
	<g>
		<g>
			<g>
				<g>
					<g>
						
							<image style="overflow:visible;opacity:0.4;" width="46" height="48" xlink:href="7AD624594FBE33A9.png"  transform="matrix(1 0 0 1 852.5541 581.5541)">
						</image>
						<g>
							<polygon class="st10" points="855.9,605.7 855.9,627.5 895.8,627.5 895.8,605.7 875.9,584.8 							"/>
						</g>
					</g>
					<polyline class="st10" points="875.9,627.5 895.8,627.5 895.8,605.7 875.9,584.8 					"/>
					<rect x="855.9" y="603.8" class="st11" width="2.8" height="23.8"/>
					<rect x="861.6" y="598.3" class="st11" width="2.8" height="29.2"/>
					<rect x="867.3" y="592.7" class="st11" width="2.8" height="34.8"/>
					<rect x="873" y="587.2" class="st11" width="2.8" height="40.3"/>
					
						<rect x="890.1" y="598.3" transform="matrix(-1 4.536626e-11 -4.536626e-11 -1 1783.058 1225.8234)" class="st11" width="2.8" height="29.2"/>
					
						<rect x="884.4" y="592.7" transform="matrix(-1 4.408817e-11 -4.408817e-11 -1 1771.6709 1220.201)" class="st11" width="2.8" height="34.8"/>
					
						<rect x="878.7" y="587.2" transform="matrix(-1 4.472721e-11 -4.472721e-11 -1 1760.2837 1214.6971)" class="st11" width="2.8" height="40.3"/>
				</g>
				<rect x="872.5" y="617.7" class="st12" width="6.8" height="9.8"/>
				<rect x="861.2" y="611.8" class="st12" width="6.8" height="7.2"/>
				<line class="st13" x1="864.6" y1="611.8" x2="864.6" y2="618.9"/>
				<line class="st13" x1="861.2" y1="615.4" x2="868" y2="615.4"/>
				<rect x="882.9" y="611.8" class="st12" width="6.8" height="7.2"/>
				<line class="st13" x1="886.3" y1="611.8" x2="886.3" y2="618.9"/>
				<line class="st13" x1="882.9" y1="615.4" x2="889.8" y2="615.4"/>
				<rect x="872.5" y="597.9" class="st12" width="6.8" height="7.2"/>
				<line class="st13" x1="875.9" y1="597.9" x2="875.9" y2="605.1"/>
				<line class="st13" x1="872.5" y1="601.5" x2="879.3" y2="601.5"/>
				<g>
					
						<image style="overflow:visible;opacity:0.4;" width="57" height="37" xlink:href="7AD624594FBE33AF.png"  transform="matrix(1 0 0 1 847.3312 576.3312)">
					</image>
					<g>
						<polyline class="st14" points="854.1,607.7 875.9,584.8 898.3,606.9 						"/>
					</g>
				</g>
			</g>
			<polygon class="st15" points="875.9,581.3 875.9,627.5 895.8,627.5 895.8,607.8 896.6,608.7 900,605.3 			"/>
		</g>
		<g>
			<g>
				<g>
					<g>
						
							<image style="overflow:visible;opacity:0.4;" width="51" height="48" xlink:href="7AD624594FBE33AA.png"  transform="matrix(1 0 0 1 774.5541 584.5541)">
						</image>
						<g>
							<polygon class="st16" points="778.4,605.5 778.4,630.1 823.4,630.1 823.4,605.5 800.9,588.2 							"/>
						</g>
					</g>
					<polyline class="st16" points="800.9,630.1 823.4,630.1 823.4,605.5 800.9,588.2 					"/>
					<rect x="778.4" y="603.3" class="st17" width="3.2" height="26.8"/>
					<rect x="784.9" y="601.1" class="st17" width="3.2" height="29"/>
					<rect x="791.3" y="594.8" class="st17" width="3.2" height="35.3"/>
					<rect x="797.7" y="588.5" class="st17" width="3.2" height="41.6"/>
					
						<rect x="817" y="601.1" transform="matrix(-1 4.415212e-11 -4.415212e-11 -1 1637.191 1231.2094)" class="st17" width="3.2" height="29"/>
					
						<rect x="810.6" y="594.8" transform="matrix(-1 4.415212e-11 -4.415212e-11 -1 1624.3373 1224.8629)" class="st17" width="3.2" height="35.3"/>
					
						<rect x="804.1" y="590.5" transform="matrix(-1 4.528410e-11 -4.528410e-11 -1 1611.4835 1220.6538)" class="st17" width="3.2" height="39.6"/>
				</g>
				<rect x="797.1" y="619.1" class="st18" width="7.7" height="11"/>
				<g>
					<rect x="809.9" y="612.9" class="st19" width="7.7" height="12.7"/>
					<line class="st20" x1="813.8" y1="612.6" x2="813.8" y2="625.5"/>
					<line class="st21" x1="809.9" y1="621.5" x2="817.6" y2="621.5"/>
					<line class="st21" x1="809.9" y1="617.2" x2="817.6" y2="617.2"/>
				</g>
				<g>
					<rect x="784.2" y="612.9" class="st19" width="7.7" height="12.7"/>
					<line class="st20" x1="788.1" y1="612.6" x2="788.1" y2="625.5"/>
					<line class="st21" x1="784.2" y1="621.5" x2="791.9" y2="621.5"/>
					<line class="st21" x1="784.2" y1="617.2" x2="791.9" y2="617.2"/>
				</g>
				<rect x="797.1" y="601.9" class="st18" width="7.7" height="8.1"/>
				<line class="st21" x1="800.9" y1="601.9" x2="800.9" y2="610"/>
				<line class="st21" x1="797.1" y1="606" x2="804.8" y2="606"/>
				<g>
					
						<image style="overflow:visible;opacity:0.4;" width="62" height="34" xlink:href="7AD624594FBE33B5.png"  transform="matrix(1 0 0 1 770.3312 580.3312)">
					</image>
					<g>
						<polyline class="st22" points="776.4,607.8 800.9,588.2 826.2,606.9 						"/>
					</g>
				</g>
			</g>
			<polygon class="st23" points="800.9,584.6 800.9,630.1 823.4,630.1 823.4,608.1 824.7,609 827.8,604.8 			"/>
		</g>
		<g>
			<g>
				<g>
					<g>
						
							<image style="overflow:visible;opacity:0.4;" width="46" height="48" xlink:href="7AD624594FBE33B6.png"  transform="matrix(1 0 0 1 807.5541 611.5541)">
						</image>
						<g>
							<polygon class="st24" points="811.2,635.6 811.2,657.4 851,657.4 851,635.6 831.1,614.6 							"/>
						</g>
					</g>
					<polyline class="st24" points="831.1,657.4 851,657.4 851,635.6 831.1,614.6 					"/>
					<rect x="811.2" y="633.6" class="st25" width="2.8" height="23.8"/>
					<rect x="816.9" y="628.2" class="st25" width="2.8" height="29.2"/>
					<rect x="822.6" y="622.5" class="st25" width="2.8" height="34.8"/>
					<rect x="828.3" y="617" class="st25" width="2.8" height="40.3"/>
					
						<rect x="845.3" y="628.2" transform="matrix(-1 4.408817e-11 -4.408817e-11 -1 1693.5244 1285.5233)" class="st25" width="2.8" height="29.2"/>
					
						<rect x="839.6" y="622.5" transform="matrix(-1 4.408817e-11 -4.408817e-11 -1 1682.1372 1279.901)" class="st25" width="2.8" height="34.8"/>
					
						<rect x="834" y="617" transform="matrix(-1 4.472721e-11 -4.472721e-11 -1 1670.7501 1274.397)" class="st25" width="2.8" height="40.3"/>
				</g>
				<rect x="827.7" y="647.6" class="st26" width="6.8" height="9.8"/>
				<rect x="816.4" y="641.6" class="st26" width="6.8" height="7.2"/>
				<line class="st13" x1="819.8" y1="641.6" x2="819.8" y2="648.8"/>
				<line class="st13" x1="816.4" y1="645.2" x2="823.2" y2="645.2"/>
				<rect x="838.2" y="641.6" class="st26" width="6.8" height="7.2"/>
				<line class="st13" x1="841.6" y1="641.6" x2="841.6" y2="648.8"/>
				<line class="st13" x1="838.2" y1="645.2" x2="845" y2="645.2"/>
				<rect x="827.7" y="627.8" class="st26" width="6.8" height="7.2"/>
				<line class="st13" x1="831.1" y1="627.8" x2="831.1" y2="634.9"/>
				<line class="st13" x1="827.7" y1="631.3" x2="834.5" y2="631.3"/>
				<g>
					
						<image style="overflow:visible;opacity:0.4;" width="56" height="37" xlink:href="7AD624594FBE33B7.png"  transform="matrix(1 0 0 1 803.3312 606.3312)">
					</image>
					<g>
						<polyline class="st14" points="809.3,637.6 831.1,614.6 853.5,636.8 						"/>
					</g>
				</g>
			</g>
			<polygon class="st27" points="831.1,611.1 831.1,657.4 851,657.4 851,637.7 851.8,638.5 855.2,635.1 			"/>
		</g>
	</g>
	<g>
		
			<image style="overflow:visible;opacity:0.1;" width="1182" height="684" xlink:href="7AD624594FBE33B9.png"  transform="matrix(1 0 0 1 -11.0549 469.9451)">
		</image>
		<g>
			<path class="st28" d="M-1,548c88.2-82.8,180.6-80.6,254.5-8.7c48,44.9,88.8,31.8,157.8,15.8s163.2-14.1,262.5,91.5
				s379.3,36.2,481.4,106.6l-31.9,389.9H0L-1,548z"/>
		</g>
	</g>
	<polygon id="CAMEROUN_1_" class="st29" points="555,846.7 537.5,826.5 547,806.3 544.3,796.2 534.6,791.1 534.6,784.7 542,781.7 
		542,759.1 535.3,760.5 536.1,769.2 536,769.4 513.6,813.3 498.6,813.5 488.8,820.7 487.2,831.1 486.4,831 495.2,838.5 495.7,854.8 
		551.1,854.8 	"/>
	<g id="XMLID_582_">
		
			<image style="overflow:visible;opacity:0.1;" width="518" height="152" xlink:href="7AD624594FBE33BB.png"  transform="matrix(1 0 0 1 180.9451 630.9451)">
		</image>
		<g>
			<path class="st30" d="M191.3,771.7H683L586.2,695c-41.1-32.8-95.1-48.8-149-48.8c0,0,0,0,0,0c-54-1.8-107.9,15.9-149.1,48.7
				L191.3,771.7z"/>
		</g>
	</g>
	<g id="XMLID_3_">
		
			<image style="overflow:visible;opacity:3.000000e-02;" width="189" height="176" xlink:href="7AD624594FBE33BE.png"  transform="matrix(1 0 0 1 43.9908 388.9908)">
		</image>
		<g>
			<g>
				<g>
					<g>
						
							<image style="overflow:visible;opacity:0.4;" width="97" height="118" xlink:href="7AD624594FBE33D2.png"  transform="matrix(1 0 0 1 84.9014 449.9014)">
						</image>
						<g>
							<g>
								<polyline class="st31" points="94.8,564.7 94.8,507.1 132.2,458.9 149.4,467.3 115,512.5 115,564.7 								"/>
								<polygon class="st31" points="116.1,488.4 178.6,476.9 174.7,473 116.1,483.6 								"/>
								<polygon class="st31" points="118.5,487.2 89.9,454.7 96.3,454.7 122.4,484.7 								"/>
							</g>
						</g>
					</g>
					<g>
						
							<image style="overflow:visible;opacity:0.4;" width="142" height="75" xlink:href="7AD624594FBE33D1.png"  transform="matrix(1 0 0 1 70.9014 395.9014)">
						</image>
						<g>
							<path class="st32" d="M209.9,401c0,37.2-30.1,67.3-67.3,67.3S75.4,438.1,75.4,401H209.9z"/>
						</g>
					</g>
					<g>
						
							<image style="overflow:visible;opacity:0.4;" width="81" height="45" xlink:href="7AD624594FBE33DE.png"  transform="matrix(1 0 0 1 153.9014 442.9014)">
						</image>
						<g>
							<path class="st33" d="M231.7,448c0,20.2-16.4,36.6-36.6,36.6s-36.6-16.4-36.6-36.6H231.7z"/>
						</g>
					</g>
					<g>
						
							<image style="overflow:visible;opacity:0.4;" width="78" height="42" xlink:href="7AD624594FBE33D0.png"  transform="matrix(1 0 0 1 50.3038 420.3038)">
						</image>
						<g>
							<path class="st33" d="M125.4,424.4c0,19.6-15.9,35.4-35.4,35.4s-35.4-15.9-35.4-35.4H125.4z"/>
						</g>
					</g>
				</g>
			</g>
		</g>
	</g>
	<g id="XMLID_2_">
		<g>
			<g>
				
					<image style="overflow:visible;opacity:0.4;" width="57" height="69" xlink:href="7AD624594FBE33D3.png"  transform="matrix(1 0 0 1 632.1825 637.1825)">
				</image>
				<g>
					<g>
						<polyline class="st31" points="684.1,704.6 684.1,670.8 662.2,642.6 652.1,647.5 672.3,674 672.3,704.6 						"/>
						<polygon class="st31" points="671.6,659.8 635,653.1 637.3,650.8 671.6,657.1 						"/>
						<polygon class="st31" points="670.2,659.1 687,640.1 683.3,640.1 667.9,657.7 						"/>
					</g>
				</g>
			</g>
			<g>
				
					<image style="overflow:visible;opacity:0.4;" width="84" height="45" xlink:href="7AD624594FBE33D7.png"  transform="matrix(1 0 0 1 613.1825 605.1825)">
				</image>
				<g>
					<path class="st32" d="M616.6,608.6c0,21.8,17.7,39.5,39.5,39.5c21.8,0,39.5-17.7,39.5-39.5H616.6z"/>
				</g>
			</g>
			<g>
				
					<image style="overflow:visible;opacity:0.4;" width="48" height="26" xlink:href="7AD624594FBE33D6.png"  transform="matrix(1 0 0 1 601.1825 633.1825)">
				</image>
				<g>
					<path class="st33" d="M603.8,636.2c0,11.9,9.6,21.5,21.5,21.5s21.5-9.6,21.5-21.5H603.8z"/>
				</g>
			</g>
			<g>
				
					<image style="overflow:visible;opacity:0.4;" width="47" height="26" xlink:href="7AD624594FBE33ED.png"  transform="matrix(1 0 0 1 663.4186 619.4186)">
				</image>
				<g>
					<path class="st33" d="M666.2,622.3c0,11.5,9.3,20.8,20.8,20.8c11.5,0,20.8-9.3,20.8-20.8H666.2z"/>
				</g>
			</g>
		</g>
	</g>
	<g>
		
			<image style="overflow:visible;opacity:0.55;" width="1342" height="481" xlink:href="7AD624594FBE33EE.png"  transform="matrix(1 0 0 1 -11.0458 656.9542)">
		</image>
		<g>
			<path class="st34" d="M0,667c154.7,2,271.4,86.8,384,68.8s156.5,6.1,297.4,32.1c140.3,25.9,213,8,315.5,10
				c102.5,2,322.9-10,322.9-10V1127L-1,1127L0,667z"/>
		</g>
	</g>
	<g>
		
			<image style="overflow:visible;opacity:3.000000e-02;" width="113" height="90" xlink:href="7AD624594FBE33EF.png"  transform="matrix(1 0 0 1 451.9908 506.9908)">
		</image>
		<g>
			<g>
				<path class="st35" d="M466.9,566.6v24c0,0,4.7,9,32.4,9v-42.7L466.9,566.6z"/>
				<g>
					<rect x="497.6" y="555.1" class="st36" width="19" height="44.4"/>
					<g>
						<path class="st35" d="M516.7,560.6v39c0,0,31.4,0.4,41.8-9.3v-29.6H516.7z"/>
						<g>
							<path class="st37" d="M470.2,548c0,0-9.5,12.6-11.9,18.2c-2.1,4.8,16.9,3.4,35,0.5c5.1-0.8,10.3-0.8,15.4,0
								c8.5,1.4,26.1,2.8,57.5-1.3c0,0-7.8-9.3-13.7-15.5L470.2,548z"/>
							<path class="st30" d="M487.1,530.2c0,0-17.3,14.8-22.4,21c0,0,7.2,4.6,36.8,0.8s33.5,2.7,59.1,1.7c0,0-16.8-18.6-25.3-21.8
								L487.1,530.2z"/>
							<path class="st28" d="M512.1,513.9c0,0-19.9,12.1-31.5,21c0,0,20.6,1.3,28.9,0c8.3-1.3,24.4,0.9,31.4-1.1L512.1,513.9z"/>
							<path class="st38" d="M556,553.8c1.4,0,2.9,0,4.5-0.1c0,0-12.3-13.6-21.2-19.5c0.6-0.1,1.1-0.2,1.6-0.4l-28.8-19.9v53.4
								c9.4,1.2,26.4,1.8,54-1.8C566.1,565.4,561.1,559.4,556,553.8z"/>
						</g>
					</g>
				</g>
			</g>
		</g>
	</g>
	<g>
		
			<image style="overflow:visible;opacity:3.000000e-02;" width="92" height="74" xlink:href="7AD624594FBE33F5.png"  transform="matrix(1 0 0 1 324.9908 517.9908)">
		</image>
		<g>
			<g>
				<path class="st35" d="M410.3,567.7V587c0,0-3.8,7.2-26.1,7.2v-34.4L410.3,567.7z"/>
				<g>
					<rect x="370.3" y="558.5" class="st36" width="15.3" height="35.8"/>
					<g>
						<path class="st35" d="M370.3,562.9v31.4c0,0-25.3,0.3-33.6-7.5v-23.8H370.3z"/>
						<g>
							<path class="st37" d="M407.7,552.8c0,0,7.6,10.1,9.6,14.7c1.7,3.9-13.6,2.8-28.2,0.4c-4.1-0.7-8.3-0.7-12.4,0
								c-6.8,1.1-21,2.2-46.3-1.1c0,0,6.3-7.5,11-12.5L407.7,552.8z"/>
							<path class="st30" d="M394.1,538.4c0,0,13.9,11.9,18,16.9c0,0-5.8,3.7-29.6,0.6s-27,2.1-47.6,1.4c0,0,13.5-15,20.4-17.6
								L394.1,538.4z"/>
							<path class="st28" d="M373.9,525.3c0,0,16,9.8,25.3,16.9c0,0-16.6,1.1-23.3,0c-6.7-1.1-19.6,0.8-25.3-0.9L373.9,525.3z"/>
							<path class="st38" d="M338.6,557.4c-1.2,0-2.4,0-3.6-0.1c0,0,9.9-10.9,17.1-15.7c-0.4-0.1-0.9-0.2-1.2-0.3l23.2-16v43
								c-7.6,0.9-21.2,1.4-43.5-1.5C330.4,566.8,334.5,561.9,338.6,557.4z"/>
						</g>
					</g>
				</g>
			</g>
		</g>
	</g>
	<g>
		
			<image style="overflow:visible;opacity:0.55;" width="169" height="425" xlink:href="7AD624594FBE33F3.png"  transform="matrix(1 0 0 1 1138.1051 367.1051)">
		</image>
		<g>
			<path class="st39" d="M1293.1,379.4c-132.5,0-127.5,38.2-142.1,398.6h127.5L1293.1,379.4z"/>
		</g>
	</g>
	<g>
		
			<image style="overflow:visible;opacity:0.1;" width="169" height="500" xlink:href="7AD624594FBE33CD.png"  transform="matrix(1 0 0 1 1214.9451 355.9451)">
		</image>
		<g>
			<path class="st40" d="M1368.5,371.5c-45.5,0-118.6-5.5-128.6,85.7c-11.2,102.7-14.7,388.4-14.7,388.4h140.6L1368.5,371.5z"/>
		</g>
	</g>
	<g>
		
			<image style="overflow:visible;opacity:0.1;" width="87" height="260" xlink:href="7AD624594FBE33CF.png"  transform="matrix(1 0 0 1 1268.9451 480.9451)">
		</image>
		<g>
			<g>
				<g>
					<path class="st3" d="M1286.1,565c-3.9,0-7,3.1-7,7v149.1h14V572C1293.1,568.2,1290,565,1286.1,565z"/>
				</g>
				<g>
					<path class="st3" d="M1330.8,496.1c-5.3,0-9.5,4.3-9.5,9.5v224.1h19V505.6C1340.3,500.3,1336.1,496.1,1330.8,496.1z"/>
				</g>
			</g>
		</g>
	</g>
	<g>
		
			<image style="overflow:visible;opacity:0.1;" width="1392" height="439" xlink:href="7AD624594FBE33CC.png"  transform="matrix(1 0 0 1 -10.0549 783.9451)">
		</image>
		<g>
			<path class="st40" d="M1366,799v413H0v-203c0,0,250.6-1,511.8-0.7c45.7,0.1,44.9-48.2,0.7-48.2c-44.2,0-40.2-56.3,0-56.3
				s121.8-0.5,140.7,0c24.6,0.6,26.9-37.3-4.3-37.3c-43.2,0-46.2-62.4,2.3-63.2c40.8-0.6,196.1,2.6,313.5,0L1366,799z"/>
		</g>
	</g>
	<g>
		
			<image style="overflow:visible;opacity:0.4;" width="97" height="138" xlink:href="7AD624594FBE33D4.png"  transform="matrix(1 0 0 1 676.1826 773.1826)">
		</image>
		<g>
			<g>
				<rect x="685.1" y="865.7" class="st41" width="8.6" height="41"/>
				<rect x="700.8" y="860.9" class="st41" width="5.3" height="41"/>
				<rect x="746.5" y="860.9" class="st41" width="5.3" height="41"/>
				<rect x="758" y="865.7" class="st41" width="8.6" height="41"/>
				<rect x="683" y="860.9" class="st42" width="85.6" height="5.6"/>
				<rect x="683" y="800.8" class="st43" width="85.6" height="60.1"/>
				<rect x="685.1" y="816.3" class="st44" width="83.5" height="4.3"/>
				<rect x="685.1" y="841.1" class="st44" width="83.5" height="4.3"/>
				<rect x="694.4" y="820.7" class="st45" width="14.7" height="20.4"/>
				<rect x="745.5" y="820.7" class="st45" width="14.7" height="20.4"/>
				<rect x="717.5" y="833" class="st45" width="19.7" height="28.2"/>
				<polygon class="st46" points="763.8,780.4 687.8,780.4 683,800.8 768.6,800.8 				"/>
				<polygon class="st47" points="763.8,780.4 727.2,780.4 727.2,860.9 768.6,860.9 768.6,800.8 				"/>
			</g>
		</g>
	</g>
	<g>
		
			<image style="overflow:visible;opacity:0.1;" width="358" height="164" xlink:href="7AD624594FBE33D5.png"  transform="matrix(1 0 0 1 1023.9451 678.9451)">
		</image>
		<g>
			<path class="st40" d="M1365.9,831.8h-330.4c-0.7-3.8-0.9-7.7-0.3-11.6c2.5-15.9,16-27.5,32.1-27.5c1.7,0,3.4,0.1,5.1,0.4
				c0.3,0.1,0.7,0.2,1.2,0.2l9.9,1.7l4.3-9.1c12.3-26,38.8-42.8,67.4-42.8c3.9,0,7.8,0.3,11.7,0.9c7.2,1.2,14.2,3.3,20.7,6.5
				l13.1,6.3l5-13.6c10.8-29.2,38.9-48.8,70-48.8c3.9,0,7.8,0.3,11.7,0.9c24.3,3.8,45.3,19.4,55.9,41.7l5.5,11.5l17.2-6.5
				C1367.9,741.2,1365.9,831.8,1365.9,831.8z"/>
		</g>
	</g>
	<path class="st40" d="M1203.3,796.2c6.7,9.1,9.4,20.3,7.6,31.4c-0.3,1.6-0.6,3.1-1,4.6H968.5c-0.4-2.1-0.5-4.3-0.2-6.5
		c1.4-9,9-15.5,18.1-15.5c1,0,1.9,0.1,2.9,0.2c0.1,0,0.4,0.1,0.7,0.1l5.6,1l2.4-5.1c7-14.7,21.9-24.2,38.2-24.2
		c2.2,0,4.4,0.2,6.6,0.5c4.1,0.7,8,1.9,11.7,3.7l7.4,3.6l2.8-7.7c6.1-16.5,22-27.6,39.6-27.6c2.2,0,4.4,0.2,6.6,0.5
		c13.8,2.1,25.6,11,31.6,23.6l3.1,6.5l6.6-2.9c5.3-2.3,11-3.5,16.8-3.5c2.2,0,4.4,0.2,6.6,0.5
		C1186.9,781.1,1196.7,787.1,1203.3,796.2z"/>
	<g>
		
			<image style="overflow:visible;opacity:0.1;" width="338" height="148" xlink:href="7AD624594FBE33DA.png"  transform="matrix(1 0 0 1 1043.9451 694.9451)">
		</image>
		<g>
			<path class="st3" d="M1365.9,831.7h-310.8c-0.7-3.3-0.8-6.8-0.3-10.3c2.2-14.1,14.2-24.4,28.5-24.4c1.5,0,3,0.1,4.5,0.4
				c0.2,0.1,0.6,0.1,1,0.2l8.8,1.5l3.8-8.1c10.9-23.1,34.4-38,59.9-38c3.4,0,6.9,0.3,10.4,0.8c6.4,1,12.6,3,18.4,5.7l11.6,5.6
				l4.5-12.1c9.6-25.9,34.6-43.3,62.2-43.3c3.4,0,6.9,0.3,10.3,0.8c21.6,3.4,40.2,17.2,49.6,37l4.9,10.2l10.4-4.5
				c7.1-3.1,14.5-4.9,22.2-5.4C1367.3,747.9,1365.9,831.7,1365.9,831.7z"/>
		</g>
	</g>
	<g>
		
			<image style="overflow:visible;opacity:0.1;" width="248" height="99" xlink:href="7AD624594FBE33DB.png"  transform="matrix(1 0 0 1 977.9451 745.9451)">
		</image>
		<g>
			<path class="st3" d="M1203.9,801c5.9,8.4,8.3,18.7,6.5,28.8c-0.3,1.5-0.6,2.8-1,4.2l-220.6-3.7c-0.4-1.9-0.4-4-0.1-6
				c1.4-8.2,8.5-14.1,16.8-13.9c0.9,0,1.8,0.1,2.6,0.3c0.1,0,0.4,0.1,0.6,0.1l5.1,1l2.3-4.7c6.6-13.3,20.4-21.8,35.2-21.5
				c2,0,4,0.2,6,0.6c3.7,0.7,7.3,1.8,10.7,3.5l6.7,3.4l2.7-7c5.8-15,20.5-24.9,36.6-24.6c2,0,4,0.2,6,0.6
				c12.5,2.2,23.2,10.4,28.5,22l2.7,6l6.1-2.5c4.9-2,10.1-3,15.4-2.9c2,0,4,0.2,6,0.6C1189.1,786.9,1198,792.5,1203.9,801z"/>
		</g>
	</g>
	<g>
		
			<image style="overflow:visible;opacity:0.4;" width="135" height="83" xlink:href="7AD624594FBE33DC.png"  transform="matrix(1 0 0 1 1250.9756 764.9756)">
		</image>
		<g>
			<path class="st3" d="M1365.9,830.9h-97.6c-0.2-1.3-0.3-2.6-0.1-3.9c0.8-5.3,5.4-9.2,10.8-9.2c0.6,0,1.1,0,1.7,0.1
				c0.1,0,0.2,0.1,0.4,0.1l3.3,0.6l1.4-3c4.1-8.7,13-14.3,22.6-14.3c1.3,0,2.6,0.1,3.9,0.3c2.4,0.4,4.8,1.1,7,2.2l4.4,2.1l1.7-4.6
				c3.6-9.8,13.1-16.4,23.5-16.4c1.3,0,2.6,0.1,3.9,0.3c4.1,0.6,7.9,2.3,11.1,4.7C1367.2,792.2,1365.9,830.9,1365.9,830.9z"/>
		</g>
	</g>
	<g>
		
			<image style="overflow:visible;opacity:0.4;" width="88" height="124" xlink:href="7AD624594FBE3438.png"  transform="matrix(1 0 0 1 770.1826 709.1826)">
		</image>
		<g>
			<g>
				<rect x="779.3" y="792.4" class="st41" width="7.7" height="36.6"/>
				<rect x="793.3" y="788.1" class="st41" width="4.7" height="36.6"/>
				<rect x="834.1" y="788.1" class="st41" width="4.7" height="36.6"/>
				<rect x="844.5" y="792.4" class="st41" width="7.7" height="36.6"/>
				<rect x="777.4" y="788.1" class="st42" width="76.6" height="5"/>
				<rect x="777.4" y="734.4" class="st48" width="76.6" height="53.7"/>
				<rect x="779.3" y="748.3" class="st49" width="74.6" height="3.9"/>
				<rect x="779.3" y="770.4" class="st49" width="74.6" height="3.9"/>
				<rect x="792.7" y="752.1" class="st50" width="13.1" height="18.2"/>
				<rect x="827.6" y="752.1" class="st50" width="13.1" height="18.2"/>
				<polygon class="st46" points="849.6,716.2 781.7,716.2 777.4,734.4 853.9,734.4 				"/>
				<polygon class="st47" points="849.1,715.9 817.4,715.9 817.4,792.7 853.7,792.7 853.7,735.3 				"/>
			</g>
		</g>
	</g>
	<g>
		
			<image style="overflow:visible;opacity:0.4;" width="87" height="130" xlink:href="7AD624594FBE343B.png"  transform="matrix(1 0 0 1 873.1826 704.1826)">
		</image>
		<g>
			<g>
				<rect x="880.7" y="742.3" class="st51" width="74.6" height="3.9"/>
				<rect x="881.7" y="793.4" class="st41" width="7.7" height="36.6"/>
				<rect x="895.7" y="789.1" class="st41" width="4.7" height="36.6"/>
				<rect x="936.6" y="789.1" class="st41" width="4.7" height="36.6"/>
				<rect x="946.9" y="793.4" class="st41" width="7.7" height="36.6"/>
				<rect x="879.8" y="789.1" class="st42" width="76.6" height="5"/>
				<rect x="879.8" y="735.4" class="st2" width="76.6" height="53.7"/>
				<rect x="879.8" y="735.4" class="st52" width="3.8" height="53.7"/>
				<rect x="909.9" y="753.1" class="st53" width="18.3" height="36"/>
				<polygon class="st46" points="879.8,735.4 918.1,710.7 956.3,735.4 				"/>
				<rect x="889.2" y="754.6" class="st54" width="13.1" height="18.2"/>
				<rect x="936.6" y="754.6" class="st54" width="13.1" height="18.2"/>
				<rect x="880.7" y="735.4" class="st52" width="75.6" height="3.9"/>
				<polygon class="st47" points="918.1,710.7 917.5,711.1 917.5,789.1 956.3,789.1 956.3,735.4 				"/>
			</g>
		</g>
	</g>
	<g>
		<g>
			<g>
				<g>
					<rect x="230.9" y="636.2" class="st55" width="8.6" height="74.1"/>
				</g>
				<g>
					<rect x="305" y="636.2" class="st55" width="8.6" height="74.1"/>
				</g>
				<g>
					<polygon class="st56" points="313.5,632.7 272,601.1 230.9,632.6 230.9,644 272,612.5 313.3,644.1 313.5,644.1 					"/>
				</g>
				<g>
					<g>
						<rect x="233.9" y="678.6" class="st55" width="76.6" height="3.2"/>
					</g>
					<g>
						<rect x="233.9" y="699.4" class="st55" width="76.6" height="3.2"/>
					</g>
					<g>
						<rect x="270.3" y="667.2" class="st55" width="3.8" height="45"/>
					</g>
					<g>
						<rect x="233.9" y="665.8" class="st55" width="76.6" height="5.9"/>
					</g>
					<g>
						<g>
							<path class="st55" d="M264.2,696.7h-18.6v-12.1h18.6V696.7z M247.1,695.3h15.7v-9.2h-15.7V695.3z"/>
						</g>
						<g>
							<rect x="254.2" y="679.5" class="st55" width="1.4" height="22.3"/>
						</g>
						<g>
							<rect x="237.5" y="689.9" class="st55" width="34.8" height="1.4"/>
						</g>
					</g>
					<g>
						<g>
							<path class="st55" d="M299,696.7h-18.6v-12.1H299V696.7z M281.9,695.3h15.7v-9.2h-15.7V695.3z"/>
						</g>
						<g>
							<rect x="289" y="679.5" class="st55" width="1.4" height="22.3"/>
						</g>
						<g>
							<rect x="272.3" y="689.9" class="st55" width="34.8" height="1.4"/>
						</g>
					</g>
				</g>
				<g>
					<polygon class="st55" points="313.5,632.7 272,601.1 230.9,632.6 230.9,644 272,612.5 313.3,644.1 313.5,644.1 					"/>
				</g>
			</g>
			<g>
				<g>
					
						<image style="overflow:visible;opacity:0.4;" width="162" height="82" xlink:href="7AD624594FBE3439.png"  transform="matrix(1 0 0 1 187.5779 725.5778)">
					</image>
					<g>
						<g>
							<rect x="196.2" y="734.1" class="st57" width="145.6" height="66.2"/>
						</g>
					</g>
				</g>
				<g>
					<g>
						<rect x="260.8" y="757.1" class="st58" width="21.2" height="43.2"/>
					</g>
					<g>
						<rect x="260.9" y="745.9" class="st3" width="22.1" height="11.3"/>
					</g>
					<g>
						<g>
							<rect x="243.5" y="748" class="st3" width="17" height="52.4"/>
						</g>
						<g>
							<rect x="282.5" y="748" class="st3" width="17" height="52.4"/>
						</g>
						<g>
							<rect x="243.9" y="741.4" class="st55" width="55.7" height="5"/>
						</g>
						<g>
							<rect x="243.9" y="795.3" class="st55" width="55.7" height="5"/>
						</g>
						<g>
							<g>
								<g>
									<rect x="258.2" y="744.2" class="st55" width="4.7" height="56.2"/>
								</g>
								<g>
									<rect x="280.5" y="744.7" class="st55" width="4.7" height="55.7"/>
								</g>
							</g>
							<g>
								<rect x="242.3" y="767.9" class="st55" width="17.4" height="3.6"/>
							</g>
							<g>
								<rect x="282.9" y="767.9" class="st55" width="17.4" height="3.6"/>
							</g>
							<g>
								<g>
									<rect x="241.5" y="733" class="st55" width="4.7" height="67.4"/>
								</g>
								<g>
									<rect x="297.2" y="731.6" class="st55" width="4.7" height="68.8"/>
								</g>
							</g>
						</g>
					</g>
				</g>
				<g>
					<g>
						
							<image style="overflow:visible;opacity:0.4;" width="192" height="48" xlink:href="7AD624594FBE343F.png"  transform="matrix(1 0 0 1 176.5779 694.5778)">
						</image>
						<g>
							<g>
								<polygon class="st59" points="185.1,734.7 360.9,734.7 326.1,706.9 324.1,704.4 219.6,702.9 217.5,708.7 								"/>
							</g>
						</g>
					</g>
					<g>
						<g>
							<polygon class="st59" points="219.2,699.7 219,704.3 324.5,705.1 324.4,700.8 							"/>
						</g>
					</g>
				</g>
			</g>
			<g>
				
					<image style="overflow:visible;opacity:0.4;" width="171" height="26" xlink:href="7AD624594FBE343A.png"  transform="matrix(1 0 0 1 182.5779 790.5778)">
				</image>
				<g>
					<g>
						<rect x="191.3" y="798.9" class="st60" width="154.4" height="10.6"/>
					</g>
				</g>
			</g>
		</g>
		<g>
			
				<image style="overflow:visible;opacity:0.4;" width="134" height="74" xlink:href="7AD624594FBE3425.png"  transform="matrix(1 0 0 1 204.5779 574.5778)">
			</image>
			<g>
				<path class="st59" d="M275.5,588.5c-0.5-2.9-1.7-5-3.2-5c-1.4,0-2.6,1.9-3.1,4.6c-3.3,3.3-47.5,46.8-56.1,48.5
					c0,0,1.7,4.5,6.7,4.8l-0.1,0.1h104.4l-2.7-2.6l2.8,2.6c5.3-0.1,7-4.8,7-4.8C322.9,635.1,280.4,593.3,275.5,588.5z"/>
			</g>
		</g>
		<g>
			<g>
				<path class="st59" d="M275,588c0,0,47.4,47,56.3,48.7c0,0-1.8,4.7-7,4.8l-52.4-48.3L275,588z"/>
			</g>
			<g>
				<polygon class="st61" points="271.9,590.8 324.1,641.5 219.7,641.5 				"/>
			</g>
			<g>
				<path class="st59" d="M269.4,587.9c0,0-47.4,47-56.3,48.7c0,0,1.8,4.7,7,4.8l52.4-48.3L269.4,587.9z"/>
			</g>
			<g>
				<path class="st59" d="M275.7,591.1c0,4.2-1.5,7.6-3.4,7.6c-1.9,0-3.4-3.4-3.4-7.6c0-4.2,1.5-7.6,3.4-7.6
					C274.2,583.5,275.7,586.9,275.7,591.1z"/>
			</g>
		</g>
	</g>
	<g>
		<g>
			<g>
				
					<image style="overflow:visible;opacity:0.4;" width="29" height="119" xlink:href="7AD624594FBE3426.png"  transform="matrix(1 0 0 1 113.3134 659.3135)">
				</image>
				<g>
					<rect x="123.7" y="668.8" class="st31" width="13.2" height="104.8"/>
				</g>
			</g>
			<g>
				
					<image style="overflow:visible;opacity:0.4;" width="129" height="72" xlink:href="7AD624594FBE3427.png"  transform="matrix(1 0 0 1 58.3134 610.3135)">
				</image>
				<g>
					<path class="st62" d="M182.5,676.9c0-31.5-25.6-57.1-57.1-57.1s-57.1,25.6-57.1,57.1H182.5z"/>
				</g>
			</g>
			<g>
				
					<image style="overflow:visible;opacity:0.4;" width="104" height="60" xlink:href="7AD624594FBE3428.png"  transform="matrix(1 0 0 1 113.3134 636.3135)">
				</image>
				<g>
					<path class="st63" d="M212.6,691c0-24.6-19.9-44.5-44.5-44.5s-44.5,19.9-44.5,44.5H212.6z"/>
				</g>
			</g>
			<g>
				
					<image style="overflow:visible;opacity:0.4;" width="84" height="50" xlink:href="7AD624594FBE342B.png"  transform="matrix(1 0 0 1 65.3134 654.3135)">
				</image>
				<g>
					<path class="st63" d="M143.9,699c0-19-15.4-34.3-34.3-34.3S75.3,680,75.3,699H143.9z"/>
				</g>
			</g>
			<g>
				
					<image style="overflow:visible;opacity:0.4;" width="45" height="42" xlink:href="7AD624594FBE3407.png"  transform="matrix(1 0 0 1 87.3134 689.3135)">
				</image>
				<g>
					
						<rect x="109.8" y="694.9" transform="matrix(0.6643 -0.7474 0.7474 0.6643 -495.067 323.2686)" class="st31" width="5.2" height="35.8"/>
				</g>
			</g>
		</g>
	</g>
	<g>
		<g>
			<g>
				
					<image style="overflow:visible;opacity:0.4;" width="18" height="74" xlink:href="7AD624594FBE3405.png"  transform="matrix(1 0 0 1 406.9211 715.9211)">
				</image>
				<g>
					<rect x="413.4" y="722.2" class="st31" width="8.1" height="63.9"/>
				</g>
			</g>
			<g>
				
					<image style="overflow:visible;opacity:0.4;" width="79" height="45" xlink:href="7AD624594FBE3403.png"  transform="matrix(1 0 0 1 373.9211 685.9211)">
				</image>
				<g>
					<path class="st62" d="M449.3,727.2c0-19.2-15.6-34.8-34.8-34.8c-19.2,0-34.8,15.6-34.8,34.8H449.3z"/>
				</g>
			</g>
			<g>
				
					<image style="overflow:visible;opacity:0.4;" width="65" height="37" xlink:href="7AD624594FBE340D.png"  transform="matrix(1 0 0 1 406.9211 702.9211)">
				</image>
				<g>
					<path class="st63" d="M467.7,735.8c0-15-12.1-27.1-27.1-27.1s-27.1,12.1-27.1,27.1H467.7z"/>
				</g>
			</g>
			<g>
				
					<image style="overflow:visible;opacity:0.4;" width="52" height="31" xlink:href="7AD624594FBE340F.png"  transform="matrix(1 0 0 1 377.9211 713.9211)">
				</image>
				<g>
					<path class="st63" d="M425.8,740.6c0-11.6-9.4-20.9-20.9-20.9s-20.9,9.4-20.9,20.9H425.8z"/>
				</g>
			</g>
			<g>
				
					<image style="overflow:visible;opacity:0.4;" width="29" height="26" xlink:href="7AD624594FBE3402.png"  transform="matrix(1 0 0 1 390.9211 734.9211)">
				</image>
				<g>
					
						<rect x="405" y="738.2" transform="matrix(0.6643 -0.7474 0.7474 0.6643 -423.4233 555.3063)" class="st31" width="3.2" height="21.8"/>
				</g>
			</g>
		</g>
	</g>
	<g>
		
			<image style="overflow:visible;opacity:0.1;" width="150" height="98" xlink:href="7AD624594FBE3401.png"  transform="matrix(1 0 0 1 299.9451 243.9451)">
		</image>
		<g>
			<path class="st3" d="M323.1,300.2c-36.9,36.2,20.7,33.1,37.8,9.1c7.7,36.5,39.8,23,38.9-2.1c0,0,20.2,30.7,34.6,9.9
				c0,0-27.7-58.3-49.9-58.1C362.3,259.2,323.1,300.2,323.1,300.2z"/>
		</g>
	</g>
	<g>
		<g>
			
				<image style="overflow:visible;opacity:0.4;" width="56" height="59" xlink:href="7AD624594FBE3406.png"  transform="matrix(1 0 0 1 441.9008 807.9008)">
			</image>
			<g>
				<path class="st64" d="M454.8,853.9h7.3l-0.1-0.1l15.3-40.8l15.6,19.7l-19,23.7c0.1,0.2,0.1,0.5,0.1,0.7v5h-27.3v-0.2
					C446.7,857.5,450.3,853.9,454.8,853.9z"/>
			</g>
		</g>
		<g>
			
				<image style="overflow:visible;opacity:0.4;" width="122" height="64" xlink:href="7AD624594FBE3400.png"  transform="matrix(1 0 0 1 450.9008 803.9008)">
			</image>
			<g>
				<path class="st65" d="M463.8,854.8h6.6c4.4-10.5,11.8-30.1,14.9-38.2l-0.9-7.5h71.1c0.9,0.1,3.8,0.4,6.4,1.5
					c2.8,1.9,3.7,4.4,5.2,7.5c6.4,13.3-12.3,39.6-12.3,39.6l-64.9-5.7l-6.8,10.8v0.1h-27.3v-0.2
					C455.8,858.4,459.4,854.8,463.8,854.8z"/>
			</g>
		</g>
		<path class="st64" d="M486.4,857.5l57.7,0.5c-19.1-12.9-40.4-10.1-54.2-6L486.4,857.5z"/>
		<path class="st66" d="M479.3,832.4c0,0-0.3,6.5,9.4,11.9c0,0-6.4,0.3-12.3-4.1L479.3,832.4z"/>
		<g>
			
				<image style="overflow:visible;opacity:0.4;" width="38" height="34" xlink:href="7AD624594FBE347E.png"  transform="matrix(1 0 0 1 458.9008 806.9008)">
			</image>
			<g>
				<path class="st64" d="M492.6,824c0,6.7-6.3,12.2-14,12.2c-7.7,0-14-5.5-14-12.2c0-6.7,6.3-12.2,14-12.2
					C486.4,811.8,492.6,817.3,492.6,824z"/>
			</g>
		</g>
		<g>
			
				<image style="overflow:visible;opacity:0.4;" width="27" height="30" xlink:href="7AD624594FBE3466.png"  transform="matrix(1 0 0 1 449.9008 773.9008)">
			</image>
			<g>
				<path class="st65" d="M470.7,786.6c2.3,5.2,0.9,10.8-2.9,12.5c-3.9,1.7-8.8-1.2-11.1-6.5c-2.3-5.2-0.9-10.8,2.9-12.5
					C463.5,778.4,468.5,781.3,470.7,786.6z"/>
			</g>
		</g>
		<g>
			
				<image style="overflow:visible;opacity:0.4;" width="27" height="29" xlink:href="7AD624594FBE3465.png"  transform="matrix(1 0 0 1 479.9008 774.9008)">
			</image>
			<g>
				<path class="st65" d="M486.8,785.7c-2.9,4.9-2.3,10.6,1.3,12.8c3.6,2.1,8.9-0.1,11.8-5c2.9-4.9,2.3-10.6-1.3-12.8
					C495,778.5,489.7,780.8,486.8,785.7z"/>
			</g>
		</g>
		<path class="st3" d="M467.9,787.8c1.4,3.1,0.6,6.5-1.8,7.5c-2.3,1-5.3-0.7-6.7-3.9c-1.4-3.1-0.6-6.5,1.8-7.5
			C463.6,782.9,466.6,784.6,467.9,787.8z"/>
		<path class="st3" d="M489.4,787.2c-1.7,3-1.4,6.4,0.8,7.7c2.2,1.3,5.4-0.1,7.1-3c1.7-3,1.4-6.4-0.8-7.7
			C494.3,782.9,491.1,784.3,489.4,787.2z"/>
		<g>
			
				<image style="overflow:visible;opacity:0.4;" width="57" height="57" xlink:href="7AD624594FBE3462.png"  transform="matrix(1 0 0 1 449.9008 780.9008)">
			</image>
			<g>
				<path class="st65" d="M502.6,811.1c0,8.4-10.7,22.6-23.8,22.6c-13.2,0-23.8-15.9-23.8-22.6c0-12.1,10.7-24.9,23.8-24.9
					C491.9,786.2,502.6,799,502.6,811.1z"/>
			</g>
		</g>
		<polygon class="st67" points="473.2,818.6 483.5,818.6 478.5,822.5 		"/>
		<path class="st68" d="M491.3,825.7c0,2.7-3,4.9-6.7,4.9c-3.7,0-6.7-2.2-6.7-4.9c0-2.7,3-4.9,6.7-4.9
			C488.3,820.7,491.3,823,491.3,825.7z"/>
		<path class="st68" d="M479.4,825.7c0,2.7-3,4.9-6.7,4.9c-3.7,0-6.7-2.2-6.7-4.9c0-2.7,3-4.9,6.7-4.9
			C476.4,820.7,479.4,823,479.4,825.7z"/>
		<g>
			<rect x="478.2" y="821.8" class="st69" width="0.7" height="4.6"/>
		</g>
		<polygon class="st64" points="485.3,824.1 472,824.1 475,806.6 482.3,806.6 		"/>
		<polygon class="st69" points="472,824.1 478.5,828.6 485.4,824.1 		"/>
		<g>
			<path class="st70" d="M488.5,804.8c-1.1,0-2,0.9-2,2c0,1.1,0.9,2,2,2c1.1,0,2-0.9,2-2C490.5,805.7,489.6,804.8,488.5,804.8
				L488.5,804.8z"/>
			<path class="st71" d="M487.8,805.5c-0.4,0-0.7,0.3-0.7,0.7c0,0.4,0.3,0.7,0.7,0.7c0.4,0,0.7-0.3,0.7-0.7
				C488.5,805.8,488.2,805.5,487.8,805.5L487.8,805.5z"/>
		</g>
		<g>
			<path class="st70" d="M469.3,804.4c-1.1,0-2,0.9-2,2s0.9,2,2,2c1.1,0,2-0.9,2-2S470.4,804.4,469.3,804.4L469.3,804.4z"/>
			<path class="st71" d="M468.6,805.2c-0.4,0-0.7,0.3-0.7,0.7c0,0.4,0.3,0.7,0.7,0.7c0.4,0,0.7-0.3,0.7-0.7
				C469.3,805.5,469,805.2,468.6,805.2L468.6,805.2z"/>
		</g>
		<g>
			
				<image style="overflow:visible;opacity:0.4;" width="56" height="54" xlink:href="7AD624594FBE341D.png"  transform="matrix(1 0 0 1 527.9008 837.9008)">
			</image>
			<g>
				<g>
					<path class="st65" d="M536.2,887.3c0,0-0.1,0-0.1,0c-1.9-0.1-3.4-1.6-3.3-3.5c0.2-6.4,3.5-10.9,9.5-13c4.4-1.6,9.4-1.5,12-1.5
						l0.8,0c0.1,0,0.1,0,0.2,0c17.1,0,17.1-5.8,17.1-7.7c0-6.7-7.2-9.1-15.2-11c-0.8-0.2-1.6-0.4-2.3-0.6c-1.8-0.5-2.9-2.4-2.4-4.2
						c0.5-1.8,2.4-2.9,4.2-2.4c0.6,0.2,1.4,0.4,2.2,0.5c7.2,1.8,20.5,5.1,20.4,17.7c0,6.6-4.2,14.5-24,14.5c-0.1,0-0.1,0-0.2,0
						l-0.9,0c-10.2-0.1-14.4,2.2-14.6,7.9C539.6,885.8,538,887.3,536.2,887.3z"/>
				</g>
			</g>
		</g>
		<g>
			<g>
				<path class="st66" d="M481.4,787.3c-0.6,0.8-1.1,1.6-1.3,2.5c3-0.4,6.3-0.2,8.5,0.2C487.3,789.2,484.1,787.8,481.4,787.3z"/>
			</g>
			<g>
				<path class="st66" d="M476,787.3c-2.7,0.4-5.9,1.9-7.1,2.7c2.2-0.4,5.5-0.6,8.5-0.2c-0.2-0.5-0.4-0.9-0.6-1.3
					C476.6,788.1,476.3,787.7,476,787.3z"/>
			</g>
		</g>
		<g>
			<g>
				<path class="st66" d="M480.7,792c-0.5,0.8-0.8,1.7-1,2.6c2.4-0.5,5.1-0.5,6.9-0.2C485.5,793.6,482.9,792.3,480.7,792z"/>
			</g>
			<g>
				<path class="st66" d="M476.8,792c-2.2,0.3-4.8,1.6-5.8,2.4c1.8-0.3,4.5-0.3,6.9,0.2c-0.1-0.4-0.2-0.9-0.4-1.3
					C477.2,792.9,477,792.4,476.8,792z"/>
			</g>
		</g>
		<g>
			<g>
				<path class="st66" d="M464.5,803.5c-2.9-0.8-6.1-0.7-8.4,0.4c-0.6,1.7-0.9,3.5-1.1,5.3C457.8,806.2,462.7,803.8,464.5,803.5z"/>
			</g>
			<g>
				<path class="st66" d="M464.1,807.8c-2.6-0.1-6.5,1.3-9.2,3.6c0,2,0.9,3.8,1.5,5.3C458.7,813.2,461.6,809.5,464.1,807.8z"/>
			</g>
			<g>
				<path class="st66" d="M457.3,818.5c0.7,1.2,1.3,2.9,2.4,3.7c0.9-3.3,2.7-7,4.2-9C462.2,813.9,459.1,816,457.3,818.5z"/>
			</g>
			<g>
				<path class="st66" d="M463.9,800.4c-1.7-1.5-3.3-2-5.1-2.2c-0.6,1-1.2,2-1.6,3C459.2,800.3,461.4,800.4,463.9,800.4z"/>
			</g>
			<g>
				<path class="st66" d="M492.9,803.5c1.8,0.3,6.7,2.7,9.5,5.7c-0.2-1.8-0.4-3.5-1.1-5.2C499.1,803,495.8,802.6,492.9,803.5z"/>
			</g>
			<g>
				<path class="st66" d="M493.3,807.8c2.5,1.7,5.8,5.4,8.2,8.9c0.7-1.6,1-3.3,1.1-5.3C499.8,809.1,496,807.7,493.3,807.8z"/>
			</g>
			<g>
				<path class="st66" d="M493.5,813.2c1.6,2,3.5,6.2,4.4,9.5c1-0.9,1.9-2.7,2.5-3.9C498.6,816.3,495.2,813.9,493.5,813.2z"/>
			</g>
			<g>
				<path class="st66" d="M500.3,801.3c-0.5-1-1-2-1.6-3c-1.8,0.2-3.3,0.7-5.1,2.2C496.1,800.5,498.3,800.4,500.3,801.3z"/>
			</g>
		</g>
		<path class="st66" d="M506.3,809.1c0,0,4.2,8.5,1.9,18.1c0,0,5.5-3.1,6.4-18L506.3,809.1z"/>
		<path class="st66" d="M520.6,809.1c0,0,4,20.5-0.3,31.2c0,0,8.9-14.8,8.6-31.1L520.6,809.1z"/>
		<path class="st66" d="M491.2,857.9c0,0,10.1-15.1,9.3-22.9c0,0,5,9.4-1,22.8L491.2,857.9z"/>
		<path class="st66" d="M524.6,857.9c0,0,10.1-15.1,9.3-22.9c0,0,5,9.4-1,22.8L524.6,857.9z"/>
		<path class="st66" d="M507.3,857.9c0,0,6.3-3.3,8.2-14.2c0,0,2.4,7.1,0.1,14.1L507.3,857.9z"/>
		<path class="st66" d="M473.3,847.4c0,0-0.3,6.5,9.4,11.9c0,0-6.4,0.3-12.3-4.1L473.3,847.4z"/>
		<path class="st66" d="M489.8,852c0,0-3,2.8-9.5,0.1c0,0,2.2,3.3,6.7,4.4L489.8,852z"/>
		<g>
			
				<image style="overflow:visible;opacity:0.4;" width="65" height="60" xlink:href="7AD624594FBE341E.png"  transform="matrix(1 0 0 1 513.9008 808.9008)">
			</image>
			<g>
				<path class="st65" d="M519.4,863.7c0-5.9,4.8-10.8,10.8-10.8h6.3c-2.3-4-3.6-8.9-3.6-14.1c0-13.9,9.4-25.2,20.9-25.2
					c11.6,0,20.9,11.3,20.9,25.2c0,13.1-8.3,23.8-18.9,25v0.1h-0.6c-0.5,0-1,0.1-1.5,0.1c-0.5,0-1,0-1.5-0.1h-32.9V863.7z"/>
			</g>
		</g>
		<path class="st66" d="M542.8,863.9c0,0,10.1-15.1,9.3-22.9c0,0,5,9.4-1,22.8L542.8,863.9z"/>
		<path class="st66" d="M561.7,862.1c0,0,9.6-22.2,8.9-30.1c0,0,1.1,18.9-0.1,22C568.8,858,561.7,862.1,561.7,862.1z"/>
		<path class="st66" d="M550.4,809.1c0,0-2,19.5-9.7,31.2c0,0,17.1-10.6,15.1-31.1L550.4,809.1z"/>
		<path class="st66" d="M563.6,812.1c0,0,0.5,20.6-2.7,30.2c0,0,10.5-13.7,8.7-19.9C567.7,816.1,563.6,812.1,563.6,812.1z"/>
		<path class="st66" d="M536.7,808.9c0,0,0.9,7.3-2,17.5c0,0,8.4-2.4,9.3-17.3L536.7,808.9z"/>
		<path class="st66" d="M572,859.1c0,0,1.1-2.9,6.5-2.3l0.7,4.1c0,0-6.6-0.1-6.9,1.2L572,859.1z"/>
		<path class="st66" d="M575.6,870.4c0,0-2.3,2.6-6.2,3.7c0,0,0.4-4.5-2.6-6.3c0,0,1.9-0.4,3.1-1.5
			C571.1,865.1,575.8,869.3,575.6,870.4z"/>
		<path class="st66" d="M551.8,869.2c0,0,3,2.7,0.7,6.9c0,0-3.3-0.1-4,0.3c0,0,0.7-4.5-0.6-6.9C548,869.4,550,869.2,551.8,869.2z"/>
	</g>
	<g>
		<g>
			
				<image style="overflow:visible;opacity:0.55;" width="236" height="150" xlink:href="7AD624594FBE341C.png"  transform="matrix(1 0 0 1 814.2202 138.2202)">
			</image>
			<g>
				<path class="st72" d="M1039,257.2c-4,0.8-24.9,7.6-24.9,7.6s26.6-14,28.4-16.4c1.8-2.4-3.7-4-6.2-3.2
					c-2.5,0.8-24.7,13.2-24.7,13.2s25.5-16.9,26.8-18.3c1.3-1.5-4.4-3.8-6.1-2.5s-24.2,14.3-24.2,14.3s21.2-17.7,22.5-19.9
					s-3.3-3.3-5.4-3.5c-2.3-0.2-20.8,15.2-20.8,15.2s12-16.4,13.7-19.9c1.7-3.5-6.9-2.6-8.3-0.9c-1.3,1.7-12.5,13.3-12.5,13.3
					s7.3-14.7,8.9-18.1c1.6-3.3-5.9-0.6-8.2-0.7c-2.2,0-8.4,10.3-8.4,10.3s3.6-11.6,0.8-12.3c-2.7-0.6-5.4-1.2-8-2l0,0
					c0,0-29.8-10-7.9-14.7c8.8-1.5,20.6,2.9,32.8-3.2c7.1-9-20.7-22.8-59.3-21.7c-10.7,1.3-0.5,8.5-6.3,11.4
					c-7.9,3.2-18.9,0.2-27.9-3.6c-7.5-4.2-15.6-8.8-23.1-15.1c-2.3-1.8-9.1,8.3-9.1,8.3s4.2-11.3,2.8-13c-1.4-1.7-4-9.3-5.6-5.9
					c-1.6,3.3-8.5,18.3-8.5,18.3s2.1-16,2.5-18.1c0.5-2.1-4.2-9.4-5.9-5.9c-1.7,3.5-7,23.1-7,23.1s0.4-24.2-1.2-25.8
					c-1.5-1.5-5.3-4.4-6.2-2s-1.4,30-1.4,30s-4-25.7-4-27.8c0-2.1-5.4-5.1-5.7-3.2c-0.4,1.9,2.5,32.4,2.5,32.4s-4.2-25.1-5.2-27.5
					c-1-2.4-5.7-5.7-6.4-2.8s5,32.4,5,32.4s-7.8-20.5-9.7-24.2c-1.9-3.6-4.6-3-4.1-0.1c0.5,2.9,1.9,14.7,1.9,14.7s-7.6,1-4.8,6.5
					c2.8,5.5,5.4,8.9,5.4,8.9s-8.9,4.5,14.6,16.1c0,0,4.3,8.2,9.1,7.2c0.8,0.8,1.6,1.6,2.3,2.4c40.7,12.6,12,17.9,5.8,19.9l2.6,18.3
					l-3.4,1.7c60.7-31.1,70.7,8.3,98.5,23.3c13.9,7.5,30.7,6.7,44,4c18.9,7.7,17.1-0.7,17.1-0.7s4.2,0,10.3-1.3
					c6.1-1.3,2.1-7.8,2.1-7.8s10.1-6.3,12.7-7.7S1043,256.4,1039,257.2z"/>
			</g>
		</g>
		<g>
			<g>
				
					<image style="overflow:visible;opacity:0.63;" width="49" height="44" xlink:href="7AD624594FBE3422.png"  transform="matrix(1 0 0 1 852.5098 209.5098)">
				</image>
				<g>
					<path class="st72" d="M898.1,226.5c4.6,12.1-2.6,18-14.1,22.4c-11.5,4.4-19.6,4.2-24.2-8c-4.6-12.1-13.4-19.8,9-28.4
						C880.3,208.1,893.5,214.3,898.1,226.5z"/>
				</g>
			</g>
			<g>
				
					<image style="overflow:visible;opacity:0.63;" width="75" height="42" xlink:href="7AD624594FBE3424.png"  transform="matrix(1 0 0 1 793.5098 234.5098)">
				</image>
				<g>
					<polygon class="st73" points="795.6,273.9 866.3,246.9 862.7,236.5 801.9,261.1 					"/>
				</g>
			</g>
			<g>
				
					<image style="overflow:visible;opacity:0.63;" width="75" height="61" xlink:href="7AD624594FBE342A.png"  transform="matrix(1 0 0 1 791.5098 218.5098)">
				</image>
				<g>
					<path class="st74" d="M794.1,261.2c-0.7,1.9-2.9,9.1,2.6,15.8c0,0-2.1-3,1.8-6.9c0.8-0.7,1.7-1.4,2.8-2.2c0,0,0,0,0,0l0,0
						c7.6-5.5,24.8-14.9,63.1-28.9l-7.1-18.6C841.7,224.9,799.4,239,794.1,261.2z"/>
				</g>
			</g>
			<g>
				
					<image style="overflow:visible;opacity:0.63;" width="71" height="48" xlink:href="7AD624594FBE3429.png"  transform="matrix(1 0 0 1 793.5098 231.5098)">
				</image>
				<g>
					<path class="st75" d="M859.2,233.1c0,0-73.7,23.4-62.5,43.9c-2.6-12.8,65.1-37,65.1-37L859.2,233.1z"/>
				</g>
			</g>
			<polygon class="st72" points="862.1,239.5 856.9,250.4 866.2,246.9 864.5,239.1 			"/>
			<g>
				
					<image style="overflow:visible;opacity:0.63;" width="19" height="28" xlink:href="7AD624594FBE3437.png"  transform="matrix(1 0 0 1 791.5098 251.5098)">
				</image>
				<g>
					<path class="st72" d="M796.7,277c-8.6-10.9-0.3-21.6,4.1-23.2c5.8-2.7,10.5,5.8,4.1,9.3C796.8,267.4,794.2,268.6,796.7,277z"/>
				</g>
			</g>
			<g>
				
					<image style="overflow:visible;opacity:0.63;" width="25" height="30" xlink:href="7AD624594FBE34C7.png"  transform="matrix(1 0 0 1 859.5098 218.5098)">
				</image>
				<g>
					<path class="st3" d="M865.8,220.8c12,4.2,16.5,9.2,16.4,11.8c-0.2,2.6-14.3,13.2-14.3,13.2c-4.6,3.8-7.2-18.7-6.1-23.4
						C862.4,219.2,865.8,220.8,865.8,220.8z"/>
				</g>
			</g>
			<path class="st76" d="M873.2,227.8c0.9,2.3-0.3,4.9-2.5,5.7c-2.3,0.9-4.8-0.3-5.7-2.6c-0.9-2.3,0.3-4.9,2.5-5.7
				C869.8,224.3,872.4,225.5,873.2,227.8z"/>
			<path class="st77" d="M871.5,228.5c0.5,1.3-0.2,2.8-1.5,3.3c-1.3,0.5-2.8-0.2-3.3-1.5c-0.5-1.3,0.2-2.8,1.5-3.3
				C869.5,226.5,871,227.2,871.5,228.5z"/>
		</g>
		<g>
			
				<image style="overflow:visible;opacity:0.63;" width="25" height="14" xlink:href="7AD624594FBE34C9.png"  transform="matrix(1 0 0 1 939.4572 187.4572)">
			</image>
			<g>
				<path class="st3" d="M955.3,199.2c-5.7,0-14.4-4.8-14.2-6.7c0.2-2,21-3,21-3S961.1,198.9,955.3,199.2z"/>
			</g>
		</g>
	</g>
	<g>
		
			<image style="overflow:visible;opacity:0.1;" width="263" height="178" xlink:href="7AD624594FBE34CB.png"  transform="matrix(1 0 0 1 -11.0549 41.9451)">
		</image>
		<g>
			<path class="st3" d="M190.6,116.8H134c0-0.5,0-0.9,0-1.4C134,83.1,107.9,57,75.6,57c-32.2,0-58.4,26.1-58.4,58.4
				c0,0.5,0,0.9,0,1.4H-0.5l0,92.1h191.1c25.4,0,46-20.6,46-46C236.7,137.4,216.1,116.8,190.6,116.8z"/>
		</g>
	</g>
	<g>
		
			<image style="overflow:visible;opacity:0.1;" width="222" height="178" xlink:href="7AD624594FBE34C8.png"  transform="matrix(1 0 0 1 1158.9451 121.9451)">
		</image>
		<g>
			<path class="st3" d="M1365.9,148.9c0-12.3-22-11.9-35.3-11.9c-32.2,0-58.4,26.1-58.4,58.4c0,0.5,0,0.9,0,1.4h-56.6
				c-25.4,0-46,20.6-46,46c0,25.4,20.6,46,46,46h150.3C1365.9,288.8,1366,200,1365.9,148.9z"/>
		</g>
	</g>
	<g>
		
			<image style="overflow:visible;opacity:0.1;" width="408" height="147" xlink:href="7AD624594FBE34CF.png"  transform="matrix(1 0 0 1 851.9451 1075.9451)">
		</image>
		<g>
			<path class="st3" d="M1231.7,1156.1c10.4,14.3,14.7,31.8,12,49.3c-0.4,2.5-1,3.9-1.6,6.3h-379c-0.7-3.3-0.8-5.8-0.3-9.3
				c2.2-14.1,14.2-24.4,28.5-24.4c1.5,0,3,0.1,4.5,0.4c0.2,0.1,0.6,0.1,1,0.2l8.8,1.5l3.8-8.1c10.9-23.1,34.4-38,59.9-38
				c3.4,0,6.9,0.3,10.4,0.8c6.4,1,12.6,3,18.4,5.7l11.6,5.6l4.5-12.1c9.6-25.9,34.6-43.3,62.2-43.3c3.4,0,6.9,0.3,10.3,0.8
				c21.6,3.4,40.2,17.2,49.6,37l4.9,10.2l10.4-4.5c8.4-3.7,17.2-5.5,26.3-5.5c3.4,0,6.9,0.3,10.3,0.8
				C1205.9,1132.4,1221.3,1141.8,1231.7,1156.1z"/>
		</g>
	</g>
	<g>
		
			<image style="overflow:visible;opacity:0.1;" width="248" height="96" xlink:href="7AD624594FBE34CA.png"  transform="matrix(1 0 0 1 785.9451 1126.9451)">
		</image>
		<g>
			<path class="st3" d="M1011.9,1182c5.9,8.4,8.3,18.7,6.5,28.8c-0.3,1.5,0-0.2-0.4,1.2l-221.3-0.7c-0.4-1.9-0.4-4-0.1-6
				c1.4-8.2,8.5-14.1,16.8-13.9c0.9,0,1.8,0.1,2.6,0.3c0.1,0,0.4,0.1,0.6,0.1l5.1,1l2.3-4.7c6.6-13.3,20.4-21.8,35.2-21.5
				c2,0,4,0.2,6,0.6c3.7,0.7,7.3,1.8,10.7,3.5l6.7,3.4l2.7-7c5.8-15,20.5-24.9,36.6-24.6c2,0,4,0.2,6,0.6
				c12.5,2.2,23.2,10.4,28.5,22l2.7,6l6.1-2.5c4.9-2,10.1-3,15.4-2.9c2,0,4,0.2,6,0.6C997.1,1167.9,1006,1173.5,1011.9,1182z"/>
		</g>
	</g>
	<g>
		
			<image style="overflow:visible;opacity:0.1;" width="209" height="97" xlink:href="7AD624594FBE34D6.png"  transform="matrix(1 0 0 1 -10.0549 1125.9451)">
		</image>
		<g>
			<path class="st3" d="M0,1164c0,0,9.5,1.1,14.4,3.2l6.1,2.5l2.7-6c5.3-11.6,16-19.9,28.5-22c2-0.3,4-0.5,6-0.6
				c16.1-0.3,30.8,9.6,36.6,24.6l2.7,7l6.7-3.4c3.4-1.7,7-2.9,10.7-3.5c2-0.3,4-0.5,6-0.6c14.8-0.2,28.7,8.2,35.2,21.5l2.3,4.7
				l5.1-1c0.3,0,0.5-0.1,0.6-0.1c0.9-0.2,1.8-0.2,2.6-0.3c8.3-0.1,15.4,5.7,16.8,13.9c0.4,2,0.1,6-0.3,8H0C0,1212,0,1169,0,1164z"/>
		</g>
	</g>
	<g>
		
			<image style="overflow:visible;opacity:0.3;" width="175" height="77" xlink:href="7AD624594FBE34D7.png"  transform="matrix(1 0 0 1 1064 1154)">
		</image>
		<g>
			<path class="st3" d="M1215.6,1190.5c3.9,5.4,5.6,12,4.5,18.6c-0.2,0.9-0.4,1.9-0.6,2.8h-143.2c-0.2-1.3-0.3-2.6-0.1-3.9
				c0.8-5.3,5.4-9.2,10.8-9.2c0.6,0,1.1,0,1.7,0.1c0.1,0,0.2,0.1,0.4,0.1l3.3,0.6l1.4-3c4.1-8.7,13-14.3,22.6-14.3
				c1.3,0,2.6,0.1,3.9,0.3c2.4,0.4,4.8,1.1,7,2.2l4.4,2.1l1.7-4.6c3.6-9.8,13.1-16.4,23.5-16.4c1.3,0,2.6,0.1,3.9,0.3
				c8.2,1.3,15.2,6.5,18.8,14l1.8,3.9l3.9-1.7c3.2-1.4,6.5-2.1,9.9-2.1c1.3,0,2.6,0.1,3.9,0.3
				C1205.9,1181.5,1211.7,1185,1215.6,1190.5z"/>
		</g>
	</g>
</g>
<g id="Calque_2">
</g>
</svg>
