<svg xmlns="http://www.w3.org/2000/svg" viewBox="0 0 223.21 301.13"><defs><style>.cls-1{fill:#efd2ce;}.cls-2{fill:#e2bcb7;}.cls-3{fill:#ddc357;}.cls-4{fill:#e8b7b3;}.cls-5{fill:#333;}.cls-6{fill:#fff;}</style></defs><title>Fichier 11</title><g id="Calque_2" data-name="Calque 2"><g id="Calque_21" data-name="Calque 21"><path class="cls-1" d="M0,211.29C-1.84,284.37,116,301.13,116,301.13c62.92-18.36,109.53-41.63,107.17-89.84Z"/><path class="cls-1" d="M80.42,146.25C32.6,164.8.05,176.51.05,211.29H223.16c0-30.67-20.65-42.94-72.63-65Z"/><path class="cls-2" d="M77,146.26c0,15,22,30.56,35.56,32.35,15.92,0,38.06-17,39.22-32.35Z"/><path class="cls-1" d="M59.84,119.14c.4,13.76,35.51,49.46,52.27,50.66S166,139.68,166,119.14l-.26-54.43c-.8-15.56-13.17-47.48-53.06-47.48S60.78,44,59.58,63.51,59.84,119.14,59.84,119.14Z"/><path class="cls-3" d="M142,68.07c-9.78,1-6.79,6,0,5.39s9.57,3.79,12.76,3.19S152.6,67.47,142,68.07Z"/><path class="cls-3" d="M86.59,66.68c9.78,1,6.79,6,0,5.38S77,75.85,73.83,75.25,76,66.08,86.59,66.68Z"/><path class="cls-2" d="M127.31,101.83C125,98,119.08,81.23,118.45,80c-1.19-2.85-8.5-9.65-12.2,6.72-3.24,14.32-11,20.29-7.87,24.09,2.76,3.36,4.92,4.4,8.64.24.47-.52.83-.78,1.31-.77.79,0,1.17.68,1.34.88,2,2.38,5.69,4.4,8.8,0,2.78-4,5.92,4.68,8.46,1.67S131.1,108.25,127.31,101.83Z"/><path class="cls-4" d="M82.29,99.46c-11.17,3-12.16,11.37-7.38,16s15.76,4,18-3S91.67,97.87,82.29,99.46Z"/><path class="cls-4" d="M145.33,99.46c-11.17,3-12.17,11.37-7.38,16s15.75,4,18-3S154.7,97.87,145.33,99.46Z"/><path class="cls-5" d="M90.8,90.17c-3.27-3.25-9.6-4-13.51-.38-3,2.78-8.76-1.09-4.45-4.58S86,78.49,95.07,85.08C100.14,88.76,93.92,93,90.8,90.17Z"/><path class="cls-5" d="M149.57,90.17c-3.26-3.25-9.6-4-13.5-.38-3,2.78-8.76-1.09-4.45-4.58s13.13-6.72,22.23-.13C158.92,88.76,152.7,93,149.57,90.17Z"/><path class="cls-1" d="M169.76,70.33c7.8-6.5,16.15,7.48-2,22.25Z"/><path class="cls-1" d="M55,70.36c-7.66-6.68-16.32,7.1,1.51,22.29Z"/><path class="cls-3" d="M74.91,45.16c31.38-6,49.3-5.32,73.24.66,1,19.33,17.57,24.11,17.57,24.11l.14,27.4s5.69-16.92,5.3-27.95,11.73-52.15-58.52-52.15C46,17.23,52,47.06,52.84,66.65c1,24.9,6.46,29.61,6.46,29.61l-.19-29.61h0C66.4,66,77.14,54.81,74.91,45.16Z"/><path class="cls-3" d="M84.14,42.62C48.05,44.3,57.94-.79,97.65,0s43.63,24.3,58.06,22.33,22.92-9,22.92-9C177.31,30.73,166,46.7,166,46.7l-38.7-16Z"/><path class="cls-5" d="M88,129.28c23.74.2,48.47-1,52.06-1,10.77,0-7.78,23.14-23.54,23.14C96.22,151.42,76.69,129.28,88,129.28Z"/><path class="cls-6" d="M102.47,131.74c-9.18,0-9.15-.53-9.15,2.26,0,4.86,41.66,1.93,41.66,1.93,2.26-.13,1.26-4.23-.2-4.19C131.2,131.83,102.47,131.74,102.47,131.74Z"/></g></g></svg>