<?xml version="1.0" encoding="utf-8"?>
<!-- Generator: Adobe Illustrator 22.1.0, SVG Export Plug-In . SVG Version: 6.00 Build 0)  -->
<svg version="1.1" id="Calque_1" xmlns="http://www.w3.org/2000/svg" xmlns:xlink="http://www.w3.org/1999/xlink" x="0px" y="0px"
	 viewBox="0 0 308 344.7" style="enable-background:new 0 0 308 344.7;" xml:space="preserve">
<style type="text/css">
	.st0{fill:#41728F;}
	.st1{fill:#EFD2CE;}
	.st2{fill:#E2BCB7;}
	.st3{fill:#DDC357;}
	.st4{fill:#E8B7B3;}
	.st5{fill:#333333;}
	.st6{display:none;}
	.st7{display:inline;fill:#333333;}
	.st8{display:inline;fill:#FFFFFF;}
</style>
<g>
	<g>
		<g>
			<g>
				<g>
					<path class="st0" d="M47.2,232.3c-1.9,73.3,116.3,90.1,116.3,90.1c63.1-18.4,109.9-41.8,107.5-90.1H47.2z"/>
				</g>
			</g>
			<g>
				<g>
					<path class="st1" d="M128.4,167.6c-47.8,18.4-80.4,30.1-80.4,64.6h223.1c0-30.5-20.6-42.7-72.6-64.6H128.4z"/>
					<path class="st2" d="M125,167.7c0,14.9,22,30.4,35.6,32.1c15.9,0,38.1-16.9,39.2-32.1H125z"/>
					<path class="st1" d="M107.8,140.7c0.4,13.7,35.5,49.2,52.3,50.4c16.8,1.2,53.9-29.9,53.9-50.4l-0.3-54.1
						c-0.8-15.5-13.2-47.2-53.1-47.2s-51.9,26.6-53.1,46S107.8,140.7,107.8,140.7z"/>
					<path class="st3" d="M190,89.9c-9.8,1-6.8,5.9,0,5.4c6.8-0.6,9.6,3.8,12.8,3.2C206,97.9,200.6,89.4,190,89.9z"/>
					<path class="st3" d="M134.6,88.6c9.8,1,6.8,5.9,0,5.4c-6.8-0.6-9.6,3.8-12.8,3.2C118.6,96.5,124,88,134.6,88.6z"/>
					<g>
						<path class="st2" d="M175.3,123.5c-2.3-3.8-8.2-20.5-8.9-21.7c-1.2-2.8-8.5-9.6-12.2,6.7c-3.2,14.2-11,20.2-7.9,23.9
							c2.8,3.3,4.9,4.4,8.6,0.2c0.5-0.5,0.8-0.8,1.3-0.8c0.8,0,1.2,0.7,1.3,0.9c2,2.4,5.7,4.4,8.8-0.1c2.8-3.9,5.9,4.7,8.5,1.7
							C177.5,131.4,179.1,129.9,175.3,123.5z"/>
					</g>
					<path class="st4" d="M130.3,121.1c-11.2,3-12.2,11.3-7.4,15.9s15.8,4,18-3C143.1,127.1,139.7,119.6,130.3,121.1z"/>
					<path class="st4" d="M193.3,121.1c-11.2,3-12.2,11.3-7.4,15.9s15.8,4,18-3C206.1,127.1,202.7,119.6,193.3,121.1z"/>
					<path class="st5" d="M138.8,111.9c-3.3-3.2-9.6-3.9-13.5-0.4c-3,2.8-8.8-1.1-4.4-4.6c4.3-3.5,13.1-6.7,22.2-0.1
						C148.1,110.5,141.9,114.7,138.8,111.9z"/>
					<path class="st5" d="M197.6,111.9c-3.3-3.2-9.6-3.9-13.5-0.4c-3,2.8-8.8-1.1-4.4-4.6c4.3-3.5,13.1-6.7,22.2-0.1
						C206.9,110.5,200.7,114.7,197.6,111.9z"/>
					<path class="st1" d="M217.8,92.2c7.8-6.5,16.1,7.4-2,22.1L217.8,92.2z"/>
					<path class="st1" d="M103,92.2c-7.7-6.6-16.3,7.1,1.5,22.2L103,92.2z"/>
					<path class="st3" d="M122.9,67.2c31.4-5.9,49.3-5.3,73.2,0.7c1,19.2,17.6,24,17.6,24l0.1,27.2c0,0,5.7-16.8,5.3-27.8
						c-0.4-11,11.7-51.8-58.5-51.8c-66.6,0-60.6,29.6-59.8,49.1c1,24.8,6.5,29.4,6.5,29.4l-0.2-29.4c0,0-7.3,0.7,0,0
						S125.1,76.8,122.9,67.2z"/>
					<path class="st3" d="M132.1,64.7c-36.1,1.7-26.2-43.1,13.5-42.4c39.7,0.8,43.6,24.2,58.1,22.2c14.4-2,22.9-8.9,22.9-8.9
						C225.3,52.8,214,68.7,214,68.7l-38.7-15.9L132.1,64.7z"/>
					<g class="st6">
						<path class="st7" d="M136,150.8c23.7,0.2,48.5-1,52.1-1c10.8,0-7.8,23-23.5,23C144.2,172.8,124.7,150.8,136,150.8z"/>
						<path class="st8" d="M150.5,153.2c-9.2,0-9.1-0.5-9.1,2.2c0,4.8,41.7,1.9,41.7,1.9c2.3-0.1,1.3-4.2-0.2-4.2
							C179.2,153.3,150.5,153.2,150.5,153.2z"/>
					</g>
				</g>
			</g>
		</g>
		<path class="st5" d="M148.3,155.2c10.6,10.2,23.4,3.6,25.7,0c1.4-2.3-0.8-4.1-3.3-2c-4.4,3.8-13.1,6-19.1-0.5
			C148.6,149.6,146.4,153.6,148.3,155.2z"/>
	</g>
	<path class="st0" d="M165.3,213.5c-22.4,0-49.1-5.6-53.6-39.5c-46.2,18.1-62.5,31.3-64.5,58.8h224c0-25.5-15.4-41.9-57.6-58.6
		C213.2,201.3,186.7,213.5,165.3,213.5z"/>
</g>
</svg>
