<?xml version="1.0" encoding="utf-8"?>
<!-- Generator: Adobe Illustrator 22.1.0, SVG Export Plug-In . SVG Version: 6.00 Build 0)  -->
<svg version="1.1" id="Calque_1" xmlns="http://www.w3.org/2000/svg" xmlns:xlink="http://www.w3.org/1999/xlink" x="0px" y="0px"
	 viewBox="0 0 308 344.7" style="enable-background:new 0 0 308 344.7;" xml:space="preserve">
<style type="text/css">
	.st0{fill:#41728F;}
	.st1{fill:#3D3A2E;}
	.st2{fill:#EFD2CE;}
	.st3{fill:#E2BCB7;}
	.st4{fill:#E8B7B3;}
	.st5{fill:#333333;}
	.st6{fill:#EE6169;}
	.st7{fill:#FFFFFF;}
</style>
<g>
	<path class="st0" d="M42,235.7c-1.9,73.3,116.7,90.1,116.7,90.1c63.1-18.4,109.5-41.8,107.1-90.1H42z"/>
	<rect x="83.5" y="144.6" class="st1" width="135.2" height="39.1"/>
	<path class="st2" d="M123.7,168.4c-47.6,18.5-79.9,30.1-79.9,64.7h221.9c0-30.5-20.5-42.7-72.2-64.7H123.7z"/>
	<path class="st3" d="M119.8,167.1c0,14.9,21.9,30.4,35.4,32.2c15.8,0,37.9-16.9,39-32.2H119.8z"/>
	<path class="st2" d="M102.8,140.1c0.4,13.7,35.3,49.2,52,50.4s53.6-30,53.6-50.4l3.6-54c-0.8-15.5-16.9-47.3-56.6-47.3
		s-51.6,26.6-52.8,46C101.3,104.2,102.8,140.1,102.8,140.1z"/>
	<path class="st1" d="M184.5,89.3c-9.7,1-6.7,6,0,5.4c6.7-0.6,9.5,3.8,12.7,3.2C200.4,97.3,195,88.7,184.5,89.3z"/>
	<path class="st1" d="M129.4,88c9.7,1,6.7,6,0,5.4c-6.7-0.6-9.5,3.8-12.7,3.2C113.5,95.9,118.9,87.4,129.4,88z"/>
	<g>
		<path class="st3" d="M169.9,122.9c-2.3-3.8-8.2-20.5-8.8-21.7c-1.2-2.8-8.5-9.6-12.1,6.7c-3.2,14.2-10.9,20.2-7.8,24
			c2.8,3.3,4.9,4.4,8.6,0.2c0.5-0.5,0.8-0.8,1.3-0.8c0.8,0,1.2,0.7,1.3,0.9c1.9,2.4,5.7,4.4,8.8-0.1c2.8-3.9,5.9,4.7,8.4,1.7
			C172,130.8,173.6,129.3,169.9,122.9z"/>
	</g>
	<path class="st2" d="M215.3,93.7c7.8-6.5,16.1,7.4-2,22.1L215.3,93.7z"/>
	<path class="st2" d="M97.9,91.6c-7.6-6.6-16.2,7.1,1.5,22.2L97.9,91.6z"/>
	<path class="st4" d="M124.4,121.7c-11.1,3-12.1,11.3-7.3,15.9c4.8,4.6,15.7,4,17.9-3C137,127.6,133.7,120.1,124.4,121.7z"/>
	<path class="st4" d="M187,121.7c-11.1,3-12.1,11.3-7.3,15.9c4.8,4.6,15.7,4,17.9-3C199.7,127.6,196.4,120.1,187,121.7z"/>
	<path class="st5" d="M130.4,145.6c23.6,0.2,48.2-1,51.8-1c10.7,0-7.7,23-23.4,23C138.6,167.6,119.1,145.6,130.4,145.6z"/>
	<path class="st6" d="M157.9,157.3c-6.9,0.6-12.4-1.2-11.5,2.9s15.1,2.8,17.9,2.8C167.5,163,172.3,156.1,157.9,157.3z"/>
	<path class="st7" d="M144.8,148c-9.1,0-9.1-0.5-9.1,2.2c0,4.8,41.4,1.9,41.4,1.9c2.2-0.1,1.2-4.2-0.2-4.2
		C173.3,148.1,144.8,148,144.8,148z"/>
	<path class="st5" d="M177,113c6.3-2.8,15.7-1,17.3,0c1.6,1,0.2-10-8.6-9.3C176.8,104.3,177,113,177,113z"/>
	<path class="st5" d="M119.1,112c6.3-2.8,15.7-1,17.3,0c1.6,1,0.2-10-8.6-9.3C118.9,103.4,119.1,112,119.1,112z"/>
	<path class="st0" d="M160.1,216c-22.4,0-49.1-6.1-53.6-42.5C60.3,193,44,207.3,42,236.9h224c0-27.4-15.4-45.1-57.6-63.1
		C208,202.9,181.5,216,160.1,216z"/>
	<path class="st1" d="M155.3,38.8c-5.5,14.7-50.9,30.4-52.8,46c-1.9,15.6-0.4,31.7,2.8,50c3.4,19.9-2.4,27.3,0,38.4
		c3.8,17.3,2.9,43.4,9,58.3c9.9,24.3,12.8,34.4,12.8,52.2c-37.9,0.7-38.7-28.9-56.2-50.7c-20.7-25.7-9.9-55.9-9.9-55.9
		s6-17.3,1-42.4s11.2-29.9,12-42.7c0.8-12.9-7.1-22,3.2-37.4s48.2-49.1,76.2-29.8c31.1-19.4,67,12.7,75.8,30.9
		c8.7,18.2-0.8,25.2,3.6,37.8c4.4,12.6,8.3,10.2,12.1,25c4.2,16.2-1.2,37.1,2.4,50.5c5.8,21.4-7.8,24.1,3,45.5
		c10.2,20.3-10.2,40.1-17.3,46.6c-14.1,9.9-20.2,16.2-38,23.8c-8.7-17,19.7-54.9,17-70.4c-2.6-15.5-8.4-50.7-5.1-66.7
		s3.6-21.8-0.3-40.6c-3.9-18.8,1.1-24.1-2.9-30.1S161.2,55,155.3,38.8z"/>
</g>
</svg>
