<svg xmlns="http://www.w3.org/2000/svg" viewBox="0 0 224.9 306"><defs><style>.cls-1{fill:#efd2ce;}.cls-2{fill:#3d3a2e;}.cls-3{fill:#e2bcb7;}.cls-4{fill:#e8b7b3;}.cls-5{fill:#333;}.cls-6{fill:#ee6169;}.cls-7{fill:#fff;}</style></defs><title>Fichier 10</title><g id="Calque_2" data-name="Calque 2"><g id="Calque_21" data-name="Calque 21"><path class="cls-1" d="M0,215.49C-1.85,289.12,117.24,306,117.24,306c63.39-18.49,110-41.94,107.57-90.51Z"/><rect class="cls-2" x="40.3" y="127.41" width="137.02" height="39.65"/><path class="cls-1" d="M81,151.5C32.84,170.2.05,182,.05,217H224.84c0-30.91-20.8-43.27-73.18-65.54Z"/><path class="cls-3" d="M77.12,150.2c0,15.11,22.19,30.78,35.82,32.59,16.05,0,38.36-17.11,39.53-32.59Z"/><path class="cls-1" d="M59.86,122.87c.4,13.87,35.77,49.84,52.65,51s54.26-30.35,54.26-51l3.62-54.73c-.8-15.67-17.15-47.94-57.34-47.94S60.79,47.13,59.59,66.82,59.86,122.87,59.86,122.87Z"/><path class="cls-2" d="M142.66,71.42c-9.85,1-6.84,6,0,5.43s9.64,3.82,12.86,3.21S153.31,70.82,142.66,71.42Z"/><path class="cls-2" d="M86.81,70c9.85,1,6.83,6,0,5.43S77.16,79.26,74,78.66,76.16,69.41,86.81,70Z"/><path class="cls-3" d="M127.83,105.43c-2.29-3.88-8.29-20.75-8.92-22-1.2-2.88-8.57-9.72-12.3,6.77-3.26,14.43-11.08,20.44-7.93,24.27,2.79,3.39,5,4.43,8.71.25a1.73,1.73,0,0,1,1.32-.79c.79,0,1.17.69,1.34.89,2,2.4,5.74,4.43,8.87-.05,2.8-4,6,4.72,8.53,1.68S131.65,111.9,127.83,105.43Z"/><path class="cls-1" d="M173.87,75.86c7.86-6.55,16.27,7.53-2,22.41Z"/><path class="cls-1" d="M54.94,73.72C47.23,67,38.51,80.88,56.46,96.18Z"/><path class="cls-4" d="M81.7,104.21c-11.25,3-12.26,11.45-7.43,16.07s15.87,4,18.08-3S91.15,102.6,81.7,104.21Z"/><path class="cls-4" d="M145.21,104.21c-11.26,3-12.26,11.45-7.44,16.07s15.88,4,18.09-3S154.65,102.6,145.21,104.21Z"/><path class="cls-5" d="M87.86,128.41c23.92.2,48.84-1,52.46-1,10.85,0-7.84,23.31-23.72,23.31C96.1,150.72,76.43,128.41,87.86,128.41Z"/><path class="cls-6" d="M115.66,140.27c-6.94.57-12.59-1.21-11.65,2.95S119.28,146,122.09,146C125.42,146,130.27,139.06,115.66,140.27Z"/><path class="cls-7" d="M102.4,130.89c-9.25,0-9.22-.54-9.22,2.28,0,4.89,42,1.94,42,1.94,2.28-.13,1.26-4.26-.2-4.22C131.35,131,102.4,130.89,102.4,130.89Z"/><path class="cls-5" d="M135.06,95.4c6.43-2.82,15.88-1,17.49,0s.2-10.1-8.74-9.43S135.06,95.4,135.06,95.4Z"/><path class="cls-5" d="M76.38,94.39c6.43-2.81,15.88-1,17.48,0S94.07,84.3,85.12,85,76.38,94.39,76.38,94.39Z"/><path class="cls-2" d="M113.05,20.2C107.43,35.06,61.49,51,59.59,66.82s-.38,32.12,2.81,50.68c3.45,20.13-2.45,27.71,0,38.9,3.83,17.55,3,44,9.13,59,10.06,24.66,13,34.84,13,52.93-38.4.73-39.23-29.24-57-51.33-20.95-26-10-56.62-10-56.62s6.12-17.55,1-42.92S29.85,87.23,30.66,74.21s-7.24-22.27,3.21-37.95S82.69-13.51,111.05,6.12C142.58-13.58,179,19,187.82,37.47S187,63,191.44,75.75s8.39,10.37,12.25,25.36c4.22,16.39-1.27,37.6,2.41,51.17,5.87,21.67-7.88,24.42,3,46.15,10.34,20.6-10.37,40.6-17.5,47.2-14.31,10.07-20.47,16.44-38.51,24.12-8.79-17.24,19.94-55.64,17.27-71.32s-8.5-51.37-5.18-67.58,3.69-22.09-.3-41.16S166,65.25,162,59.22,119.08,36.67,113.05,20.2Z"/></g></g></svg>