<?xml version="1.0" encoding="utf-8"?>
<!-- Generator: Adobe Illustrator 22.1.0, SVG Export Plug-In . SVG Version: 6.00 Build 0)  -->
<svg version="1.1" id="Calque_1" xmlns="http://www.w3.org/2000/svg" xmlns:xlink="http://www.w3.org/1999/xlink" x="0px" y="0px"
	 viewBox="0 0 308 344.7" style="enable-background:new 0 0 308 344.7;" xml:space="preserve">
<style type="text/css">
	.st0{fill:#41728F;}
	.st1{fill:#CE9C80;}
	.st2{fill:#BC846C;}
	.st3{fill:#333333;}
	.st4{fill:#0B2625;}
	.st5{fill:#C48469;}
	.st6{fill:#EE6169;}
	.st7{fill:#FFFFFF;}
</style>
<g>
	<g>
		<g>
			<g>
				<path class="st0" d="M45.3,230.6C43.5,302.5,155,320,155,320c61.9-18.1,112.1-42,109.8-89.4H45.3z"/>
			</g>
			<g>
				<path class="st1" d="M124.5,167.6c-47.1,18.3-79.1,29.8-79.1,64H265c0-30.2-20.3-42.3-71.5-64H124.5z"/>
				<path class="st2" d="M120.9,167.8c0,14.8,21.7,30.1,35,31.8c15.7,0,37.5-16.7,38.6-31.8H120.9z"/>
				<path class="st1" d="M104,141.1c0.4,13.5,34.9,48.7,51.4,49.9c16.5,1.2,53-29.6,53-49.9l-0.3-53.6c-0.8-15.3-13-46.7-52.2-46.7
					s-51,26.3-52.2,45.5C102.6,105.6,104,141.1,104,141.1z"/>
				<circle class="st3" cx="187.1" cy="109.9" r="7.4"/>
				<circle class="st3" cx="126.7" cy="109.9" r="7.4"/>
				<path class="st4" d="M184.9,90.8c-9.6,1-6.7,5.9,0,5.3c6.7-0.6,9.4,3.7,12.6,3.1C200.6,98.7,195.3,90.2,184.9,90.8z"/>
				<path class="st4" d="M130.3,89.4c9.6,1,6.7,5.9,0,5.3c-6.7-0.6-9.4,3.7-12.6,3.1C114.6,97.3,119.9,88.8,130.3,89.4z"/>
				<g>
					<path class="st2" d="M170.4,124c-2.2-3.8-8.1-20.3-8.7-21.4c-1.2-2.8-8.4-9.5-12,6.6c-3.2,14.1-10.8,20-7.7,23.7
						c2.7,3.3,4.8,4.3,8.5,0.2c0.5-0.5,0.8-0.8,1.3-0.8c0.8,0,1.1,0.7,1.3,0.9c1.9,2.3,5.6,4.3,8.7-0.1c2.7-3.9,5.8,4.6,8.3,1.6
						C172.5,131.9,174.1,130.3,170.4,124z"/>
				</g>
				<path class="st1" d="M212.2,95.6c7.7-6.4,15.9,7.4-2,21.9L212.2,95.6z"/>
				<path class="st1" d="M99.5,98c-7.5-6.6-16.1,7,1.5,21.9L99.5,98z"/>
				<path class="st5" d="M125.3,123.1c-11,2.9-12,11.2-7.3,15.7c4.7,4.5,15.5,3.9,17.7-2.9S134.5,121.5,125.3,123.1z"/>
				<path class="st5" d="M187.3,123.1c-11,2.9-12,11.2-7.3,15.7c4.7,4.5,15.5,3.9,17.7-2.9S196.6,121.5,187.3,123.1z"/>
				<g>
					<path class="st3" d="M131.4,150.6c23.4,0.2,47.7-1,51.2-1c10.6,0-7.7,22.8-23.2,22.8C139.4,172.4,120.2,150.6,131.4,150.6z"/>
					<path class="st6" d="M158.5,162.1c-6.8,0.6-12.3-1.2-11.4,2.9s14.9,2.7,17.7,2.7C168,167.8,172.8,161,158.5,162.1z"/>
					<path class="st7" d="M145.6,153c-9,0-9-0.5-9,2.2c0,4.8,41,1.9,41,1.9c2.2-0.1,1.2-4.2-0.2-4.1
						C173.8,153.1,145.6,153,145.6,153z"/>
				</g>
				<path class="st4" d="M105.1,96.3c0,0,7.6-3.5,7.2-12c0,0,13.5,2.2,10.6-10.6c3.3,8.6,16,4.4,15.2-1.8c0,0,7.9,8.9,13.9-1
					c0,0,6.5,9.7,13.3,0.8c0,0,7.5,7.2,14.9,0.5c0,0,2.1,11,11.5,5.8c0,0-2.6,12,8.4,9.7c0,0,2.1,9.3,7.2,9.4v22.8
					c0,0,0.5,5.1,3.2-0.9s2-21.9,2-21.9c8.6-15.5,8.7-25.1,6.3-37.7c-9-27.7-37.5-39.1-61.2-38.7c-25.3,0.5-46.5,8-61.8,26.6
					c0,0-9.9,11.1-2.2,16.2c0,0-6.1,35.2,5.9,34.5c0,0,0.4,24.8,3,24.8C106.7,122.9,105.1,96.3,105.1,96.3z"/>
			</g>
		</g>
	</g>
	<path class="st0" d="M161,212.6c-22,0-48.3-5.5-52.6-38.8C63,191.6,47,204.6,45,231.6h220c0-25-15.1-41.2-56.6-57.6
		C208,200.6,182,212.6,161,212.6z"/>
</g>
</svg>
