<svg xmlns="http://www.w3.org/2000/svg" viewBox="0 0 219.74 299.31"><defs><style>.cls-1{fill:#ce9c80;}.cls-2{fill:#bc846c;}.cls-3{fill:#333;}.cls-4{fill:#0b2625;}.cls-5{fill:#c48469;}.cls-6{fill:#ee6169;}.cls-7{fill:#fff;}</style></defs><title>Fichier 8</title><g id="Calque_2" data-name="Calque 2"><g id="Calque_24" data-name="Calque 24"><path class="cls-1" d="M0,210.91c-1.83,71.91,109.77,88.4,109.77,88.4,61.92-18.06,112.1-41,109.78-88.4Z"/><path class="cls-1" d="M79.28,146.87C32.22,165.13.2,176.65.2,210.88H219.74c0-30.19-20.31-42.26-71.47-64Z"/><path class="cls-2" d="M75.62,147c0,14.76,21.67,30.07,35,31.83,15.66,0,37.46-16.71,38.6-31.83Z"/><path class="cls-1" d="M58.76,120.35c.39,13.54,34.94,48.68,51.42,49.86s53-29.64,53-49.86l-.26-53.56c-.79-15.31-13-46.72-52.21-46.72s-51,26.31-52.21,45.54S58.76,120.35,58.76,120.35Z"/><circle class="cls-3" cx="141.88" cy="89.24" r="7.36"/><circle class="cls-3" cx="81.43" cy="89.24" r="7.36"/><path class="cls-4" d="M139.63,70.1c-9.62,1-6.68,5.89,0,5.3s9.42,3.73,12.56,3.14S150,69.51,139.63,70.1Z"/><path class="cls-4" d="M85.08,68.73c9.62,1,6.67,5.89,0,5.3s-9.42,3.73-12.56,3.14S74.68,68.14,85.08,68.73Z"/><path class="cls-2" d="M125.14,103.31c-2.23-3.78-8.09-20.26-8.71-21.43-1.17-2.81-8.36-9.5-12,6.61-3.19,14.09-10.83,20-7.75,23.71,2.72,3.3,4.84,4.32,8.5.23a1.72,1.72,0,0,1,1.29-.76c.77,0,1.15.67,1.31.87,1.93,2.34,5.6,4.33,8.67-.05,2.73-3.91,5.82,4.61,8.33,1.64S128.88,109.63,125.14,103.31Z"/><path class="cls-1" d="M167,74.91c7.68-6.39,15.89,7.36-2,21.9Z"/><path class="cls-1" d="M54.27,77.32c-7.53-6.57-16.05,7,1.49,21.94Z"/><path class="cls-5" d="M80.05,102.38c-11,2.94-12,11.19-7.26,15.7s15.5,3.93,17.66-2.94S89.27,100.81,80.05,102.38Z"/><path class="cls-5" d="M142.07,102.38c-11,2.94-12,11.19-7.26,15.7s15.51,3.93,17.67-2.94S151.3,100.81,142.07,102.38Z"/><path class="cls-3" d="M86.11,129.86c23.36.2,47.7-1,51.23-1,10.6,0-7.65,22.77-23.16,22.77C94.16,151.65,75,129.86,86.11,129.86Z"/><path class="cls-6" d="M113.26,141.44c-6.78.56-12.3-1.18-11.38,2.88s14.91,2.75,17.66,2.75C122.79,147.07,127.53,140.26,113.26,141.44Z"/><path class="cls-7" d="M100.31,132.28c-9,0-9-.53-9,2.22,0,4.78,41,1.9,41,1.9,2.23-.13,1.24-4.16-.19-4.12C128.58,132.37,100.31,132.28,100.31,132.28Z"/><path class="cls-4" d="M59.88,75.62s7.56-3.52,7.17-12c0,0,13.55,2.23,10.6-10.6,3.33,8.64,16,4.45,15.18-1.83,0,0,7.85,8.9,13.87-1,0,0,6.54,9.69,13.34.79,0,0,7.49,7.17,14.92.52,0,0,2.09,11,11.52,5.76,0,0-2.62,12,8.37,9.68,0,0,2.06,9.33,7.24,9.38V99.13s.52,5.07,3.18-.87,2-21.89,2-21.89c8.59-15.51,8.75-25.09,6.34-37.68C164.62,11,136.07-.46,112.41,0,87.15.52,65.93,8,50.6,26.6c0,0-9.88,11.1-2.23,16.2,0,0-6.12,35.24,5.9,34.52,0,0,.36,24.84,3,24.85C61.46,102.17,59.88,75.62,59.88,75.62Z"/></g></g></svg>