<?xml version="1.0" encoding="utf-8"?>
<!-- Generator: Adobe Illustrator 22.1.0, SVG Export Plug-In . SVG Version: 6.00 Build 0)  -->
<svg version="1.1" id="Calque_1" xmlns="http://www.w3.org/2000/svg" xmlns:xlink="http://www.w3.org/1999/xlink" x="0px" y="0px"
	 viewBox="0 0 308 344.7" style="enable-background:new 0 0 308 344.7;" xml:space="preserve">
<style type="text/css">
	.st0{fill:#EFD2CE;}
	.st1{fill:#E2BCB7;}
	.st2{fill:#BCAF77;}
	.st3{fill:#E8B7B3;}
	.st4{fill:#333333;}
	.st5{fill:#41728F;}
</style>
<g>
	<g>
		<g>
			<path class="st0" d="M124.1,175.9c-47,18.2-79,29.7-79,63.9h219.3c0-30.2-20.3-42.2-71.4-63.9H124.1z"/>
			<path class="st1" d="M122.3,176.1c0,14.7,21.7,30,35,31.8c15.7,0,37.4-16.7,38.6-31.8H122.3z"/>
			<path class="st0" d="M105.4,149.4c0.4,13.5,34.9,48.6,51.4,49.8s52.9-29.6,52.9-49.8l-0.3-53.5c-0.8-15.3-12.9-46.7-52.2-46.7
				s-51,26.3-52.2,45.5S105.4,149.4,105.4,149.4z"/>
			<path class="st2" d="M186.2,99.2c-9.6,1-6.7,5.9,0,5.3c6.7-0.6,9.4,3.7,12.5,3.1C201.9,107.1,196.6,98.6,186.2,99.2z"/>
			<path class="st2" d="M131.7,97.8c9.6,1,6.7,5.9,0,5.3c-6.7-0.6-9.4,3.7-12.5,3.1S121.3,97.3,131.7,97.8z"/>
			<g>
				<path class="st1" d="M171.7,136.6c-2.2-3.8-8.1-20.2-8.7-21.4c-1.2-2.8-8.4-9.5-12,6.6c-3.2,14.1-10.8,19.9-7.7,23.7
					c2.7,3.3,4.8,4.3,8.5,0.2c0.5-0.5,0.8-0.8,1.3-0.8c0.8,0,1.1,0.7,1.3,0.9c1.9,2.3,5.6,4.3,8.7-0.1c2.7-3.9,5.8,4.6,8.3,1.6
					C173.9,144.4,175.5,142.9,171.7,136.6z"/>
			</g>
			<path class="st3" d="M127.5,130.1c-11,2.9-12,11.2-7.3,15.7c4.7,4.5,15.5,3.9,17.6-2.9C140,136,136.7,128.5,127.5,130.1z"/>
			<path class="st3" d="M189.5,130.1c-11,2.9-12,11.2-7.3,15.7c4.7,4.5,15.5,3.9,17.6-2.9S198.7,128.5,189.5,130.1z"/>
			<path class="st0" d="M103.7,107.1c-7.5-6.6-16,7,1.5,21.9L103.7,107.1z"/>
			<path class="st0" d="M210.9,108c7.7-6.4,15.9,7.4-2,21.9L210.9,108z"/>
			<path class="st4" d="M193.7,114.4c-12.5,0-18,3.4-18.6,6.8c-0.5,3.4,14.9-0.3,20.1,3.9c2.9,1.8,5.2-3.9-1.3-5.4
				c-6.5-1.4,3.9,0.1,4.2-2.2C198.4,115.2,197.4,114.3,193.7,114.4z"/>
			<g>
				<path class="st2" d="M129.4,67.6c0.2,14.6-13.5,28.7-24.7,35.3c-2.2-34.9,12-64.3,53.5-62c42.2,2.4,51.5,32.6,51.4,62
					C189,104.7,129.4,67.6,129.4,67.6z"/>
				<path class="st2" d="M113.1,75.2c41.4,0.9,49.9,37.5,112.1,33.7c-23.6-11.3-24.9-50.5-67.3-50.5
					C126.4,58.4,113.1,75.2,113.1,75.2z"/>
				<path class="st2" d="M152.6,44.8c-3-13.5,4.8-22.7,10.1-22.2c5.3,0.5,9.7-10.6,19.8-3.9c10.1,6.8,23.2,5.8,24.1,14
					s12.8,12.6,9.3,19.8c-3.5,7.2,0.1,17.2-11.4,19.2S152.6,44.8,152.6,44.8z"/>
				<path class="st2" d="M111.8,96.8c0,32.2,1.3,82.3,1.3,82.3c-5.6-30.7-14.7-67.7-6.1-103.9L111.8,96.8z"/>
				<path class="st2" d="M204.3,106.3c-2.2,30.1,2.7,72.8,2.7,72.8c2.7-29.7,8-65,2-90.4L204.3,106.3z"/>
			</g>
			<path class="st4" d="M145.6,164.3c10.6,10.2,23.4,3.6,25.7,0c1.4-2.3-0.8-4.1-3.3-2c-4.4,3.8-13.1,6-19.1-0.5
				C145.9,158.7,143.6,162.7,145.6,164.3z"/>
		</g>
		<path class="st5" d="M43.5,239.2c-1.8,72.4,113.1,88.9,113.1,88.9c62.3-18.2,110.1-41.2,107.8-88.9H43.5z"/>
	</g>
	<circle class="st4" cx="130.4" cy="118.6" r="7.7"/>
	<path class="st5" d="M160,221.3c-22.1,0-48.5-5.6-52.9-38.9c-45.6,17.8-61.6,30.9-63.7,58h221c0-25.1-15.2-41.4-56.8-57.9
		C207.2,209.2,181.1,221.3,160,221.3z"/>
</g>
</svg>
