<svg xmlns="http://www.w3.org/2000/svg" viewBox="0 0 232.43 330.08"><defs><style>.cls-1{fill:#efd2ce;}.cls-2{fill:#e2bcb7;}.cls-3{fill:#bcaf77;}.cls-4{fill:#e8b7b3;}.cls-5{fill:#333;}</style></defs><title>Fichier 12</title><g id="Calque_2" data-name="Calque 2"><g id="Calque_21" data-name="Calque 21"><path class="cls-1" d="M83.73,168.81C33.94,188.13.05,200.32.05,236.54H232.37c0-31.94-21.5-44.72-75.63-67.73Z"/><path class="cls-2" d="M81.77,169c0,15.61,22.94,31.81,37,33.68,16.58,0,39.64-17.69,40.85-33.68Z"/><path class="cls-1" d="M63.93,140.74c.41,14.34,37,51.51,54.41,52.76s56.08-31.36,56.08-52.76l-.27-56.67c-.83-16.2-13.71-49.43-55.25-49.43s-54,27.83-55.25,48.18S63.93,140.74,63.93,140.74Z"/><path class="cls-3" d="M149.5,87.57c-10.18,1-7.06,6.23,0,5.61s10,3.95,13.29,3.32S160.51,87,149.5,87.57Z"/><path class="cls-3" d="M91.78,86.12c10.18,1,7.06,6.23,0,5.61s-10,3.94-13.29,3.32S80.77,85.49,91.78,86.12Z"/><path class="cls-2" d="M134.18,127.14c-2.37-4-8.57-21.45-9.23-22.68-1.23-3-8.85-10-12.7,7-3.37,14.92-11.46,21.13-8.2,25.09,2.88,3.5,5.13,4.58,9,.25.49-.55.86-.81,1.36-.8.82,0,1.22.7,1.4.91,2,2.48,5.92,4.58,9.16-.05,2.89-4.13,6.17,4.87,8.82,1.74S138.13,133.83,134.18,127.14Z"/><path class="cls-4" d="M87.3,120.26c-11.63,3.11-12.67,11.84-7.68,16.62S96,141,98.31,133.76,97.06,118.6,87.3,120.26Z"/><path class="cls-4" d="M152.94,120.26c-11.63,3.11-12.67,11.84-7.69,16.62s16.41,4.15,18.7-3.12S162.7,118.6,152.94,120.26Z"/><path class="cls-1" d="M62.15,95.93c-8-7-17,7.4,1.58,23.21Z"/><path class="cls-1" d="M175.63,96.86c8.12-6.77,16.81,7.78-2.11,23.17Z"/><path class="cls-5" d="M157.43,103.68c-13.29,0-19.1,3.6-19.66,7.21s15.79-.28,21.33,4.15c3,1.94,5.54-4.15-1.39-5.68s4.18.14,4.44-2.35S161.32,103.57,157.43,103.68Z"/><path class="cls-3" d="M89.27,54.07C89.48,69.53,75,84.48,63.16,91.44c-2.33-37,12.73-68.14,56.71-65.65,44.71,2.53,54.53,34.48,54.5,65.65C152.48,93.38,89.27,54.07,89.27,54.07Z"/><path class="cls-3" d="M72.08,62.18c43.86.9,52.85,39.67,118.78,35.66-25.05-12-26.4-53.46-71.26-53.47C86.12,44.37,72.08,62.18,72.08,62.18Z"/><path class="cls-3" d="M113.94,29.94c-3.13-14.32,5.06-24,10.68-23.53s10.24-11.25,21-4.09,24.55,6.1,25.58,14.82,13.6,13.31,9.87,21,.11,18.17-12,20.34S113.94,29.94,113.94,29.94Z"/><path class="cls-3" d="M70.68,85c0,34.15,1.4,87.18,1.4,87.18-5.88-32.55-15.58-71.72-6.47-110Z"/><path class="cls-3" d="M168.66,95.11c-2.32,31.93,2.85,77.06,2.85,77.06,2.91-31.43,8.46-68.87,2.14-95.79Z"/><path class="cls-5" d="M106.46,156.54c11.21,10.8,24.78,3.85,27.21,0,1.52-2.43-.83-4.34-3.46-2.12-4.71,4-13.92,6.34-20.27-.49C106.82,150.56,104.41,154.78,106.46,156.54Z"/><path class="cls-1" d="M0,236.54c-1.93,76.09,119,93.54,119,93.54,65.52-19.11,115.8-43.35,113.34-93.54Z"/><circle class="cls-5" cx="91.3" cy="104.59" r="7.68"/></g></g></svg>